<svg xmlns="http://www.w3.org/2000/svg" width="275.982" height="108.055" viewBox="0 0 275.982 108.055">
  <g id="Grupo_13" data-name="Grupo 13" transform="translate(-1953.009 -585.945)">
    <text id="ERCOM" transform="translate(2060.991 614)" fill="#fff" font-size="45" font-family="Rockwell-Italic, Rockwell" font-style="italic" letter-spacing="-0.01em"><tspan x="0" y="43">ERCOM</tspan></text>
    <g id="Grupo_12" data-name="Grupo 12" transform="translate(-333.009 -61)">
      <g id="Grupo_2" data-name="Grupo 2" transform="translate(1.018 -125)">
        <g id="Grupo_1" data-name="Grupo 1" transform="translate(0 2)">
          <g id="Sustracción_2" data-name="Sustracción 2" transform="translate(2285 731)" fill="#5ae0ff" stroke-linecap="round">
            <path d="M 54.00000762939453 146.4997100830078 C 46.77730560302734 146.4997100830078 39.77096176147461 145.0852508544922 33.17559051513672 142.2956085205078 C 26.80487632751465 139.6010284423828 21.08332061767578 135.7433929443359 16.16983413696289 130.8298797607422 C 11.25631999969482 125.9163818359375 7.398691654205322 120.1948089599609 4.704105854034424 113.8241424560547 C 1.914477229118347 107.2287368774414 0.5000200271606445 100.2223815917969 0.5000200271606445 92.99969482421875 C 0.5000200271606445 85.77700805664063 1.914477229118347 78.77066802978516 4.704105854034424 72.17527008056641 C 7.398691654205322 65.80459594726563 11.25631999969482 60.08302307128906 16.16983413696289 55.16952514648438 C 21.08333396911621 50.25601196289063 26.80490493774414 46.39839553833008 33.17559051513672 43.70381164550781 C 39.61879730224609 40.9785270690918 46.45379638671875 39.56571197509766 53.50000762939453 39.50197219848633 L 53.50000762939453 48.50237655639648 C 41.8182258605957 48.6309814453125 30.84391975402832 53.25228118896484 22.54812049865723 61.54808044433594 C 14.13384819030762 69.96232604980469 9.499905586242676 81.13204956054688 9.499905586242676 92.99969482421875 C 9.499905586242676 117.5371551513672 29.46256256103516 137.4998168945313 54.00000762939453 137.4998168945313 C 77.69593811035156 137.4998168945313 97.12060546875 119.0898971557617 98.43069458007813 95.50041198730469 L 107.4425430297852 95.50041198730469 C 107.1293258666992 102.3238754272461 105.5455551147461 108.9181137084961 102.7322082519531 115.1090850830078 C 99.93830871582031 121.2573547363281 96.0489501953125 126.7641983032227 91.17216491699219 131.4766387939453 C 86.28765106201172 136.1965789794922 80.64205169677734 139.8973693847656 74.39220428466797 142.4761657714844 C 67.92172241210938 145.14599609375 61.060791015625 146.4997100830078 54.00000762939453 146.4997100830078 Z" stroke="none"/>
            <path d="M 54.00000762939453 145.9997100830078 C 60.99503326416016 145.9997100830078 67.79179382324219 144.6587066650391 74.20149230957031 142.0139617919922 C 80.39284515380859 139.4592895507813 85.98570251464844 135.7930603027344 90.82472229003906 131.1170806884766 C 95.65610504150391 126.4484939575195 99.50920867919922 120.9930419921875 102.2769927978516 114.9022216796875 C 104.9918670654297 108.9279556274414 106.550910949707 102.5738372802734 106.9165267944336 96.00041198730469 L 98.90127563476563 96.00041198730469 C 97.34648132324219 119.6292343139648 77.80463409423828 137.9998168945313 54.00000762939453 137.9998168945313 C 29.18686294555664 137.9998168945313 8.999905586242676 117.8128509521484 8.999905586242676 92.99969482421875 C 8.999905586242676 80.99851226806641 13.68586254119873 69.70320892333984 22.19457626342773 61.19453811645508 C 30.46611595153809 52.9229850769043 41.37215423583984 48.26393508911133 53.00000762939453 48.01051330566406 L 53.00000762939453 40.00885391235352 C 46.19773483276367 40.13335800170898 39.59911727905273 41.52974319458008 33.37037658691406 44.16431045532227 C 27.05927658081055 46.83368301391602 21.39113426208496 50.65532302856445 16.52337646484375 55.52306747436523 C 11.6556339263916 60.39082336425781 7.833991527557373 66.05896759033203 5.164605617523193 72.37005615234375 C 2.401191473007202 78.90348052978516 1.000020027160645 85.84429931640625 1.000020027160645 92.99969482421875 C 1.000020027160645 100.1551132202148 2.401191473007202 107.0959243774414 5.164605617523193 113.6293563842773 C 7.833991527557373 119.9404373168945 11.6556339263916 125.6085815429688 16.52339172363281 130.4763336181641 C 21.39110565185547 135.3440856933594 27.05926322937012 139.1657257080078 33.37037658691406 141.8351135253906 C 39.90377807617188 144.5985412597656 46.8445930480957 145.9997100830078 54.00000762939453 145.9997100830078 M 54.00000762939453 146.9997100830078 C 46.71006393432617 146.9997100830078 39.63817596435547 145.5719604492188 32.98081970214844 142.756103515625 C 26.5505199432373 140.0363311767578 20.77553367614746 136.1427307128906 15.81627750396729 131.1834411621094 C 10.85700607299805 126.2241668701172 6.963391304016113 120.4491653442383 4.243605613708496 114.018913269043 C 1.427762866020203 107.3615417480469 2.004830457735807e-05 100.2896499633789 2.004830457735807e-05 92.99969482421875 C 2.004830457735807e-05 85.70975494384766 1.427762866020203 78.63787078857422 4.243605613708496 71.98049926757813 C 6.963391304016113 65.55023956298828 10.85700607299805 59.77523803710938 15.81627750396729 54.81596755981445 C 20.77554893493652 49.85669708251953 26.55053520202637 45.96309661865234 32.98081970214844 43.24330902099609 C 39.63817596435547 40.42745208740234 46.71006393432617 38.99971008300781 54.00000762939453 38.99971008300781 L 54.00000762939453 48.99961090087891 C 42.26541900634766 49.00012588500977 31.22151947021484 53.58179473876953 22.90167808532715 61.90163803100586 C 14.58183479309082 70.22145080566406 9.999905586242676 81.26564025878906 9.999905586242676 92.99969482421875 C 9.999905586242676 117.2614364624023 29.73826217651367 136.9998168945313 54.00000762939453 136.9998168945313 C 77.58806610107422 136.9998168945313 96.89547729492188 118.5514678955078 97.95519256591797 95.00041198730469 L 107.9635467529297 95.00041198730469 C 107.7058792114258 102.0748138427734 106.0986175537109 108.9095993041992 103.1874084472656 115.3159408569336 C 100.3673934936523 121.5216827392578 96.44178009033203 127.0798950195313 91.51960754394531 131.8361968994141 C 86.58957672119141 136.6001281738281 80.8912353515625 140.3354339599609 74.58291625976563 142.9383697509766 C 68.0516357421875 145.6332855224609 61.12656402587891 146.9997100830078 54.00000762939453 146.9997100830078 Z" stroke="none" fill="#5ae0ff"/>
          </g>
        </g>
        <g id="Rectángulo_3" data-name="Rectángulo 3" transform="translate(2314 814)" fill="#5ae0ff" stroke="#5ae0ff" stroke-width="1">
          <rect width="5" height="28" stroke="none"/>
          <rect x="0.5" y="0.5" width="4" height="27" fill="none"/>
        </g>
        <g id="Rectángulo_5" data-name="Rectángulo 5" transform="translate(2329 800)" fill="#5ae0ff" stroke="#5ae0ff" stroke-width="1">
          <rect width="5" height="53" stroke="none"/>
          <rect x="0.5" y="0.5" width="4" height="52" fill="none"/>
        </g>
        <g id="Rectángulo_7" data-name="Rectángulo 7" transform="translate(2344 809)" fill="#5ae0ff" stroke="#5ae0ff" stroke-width="1">
          <rect width="5" height="38" stroke="none"/>
          <rect x="0.5" y="0.5" width="4" height="37" fill="none"/>
        </g>
        <g id="Rectángulo_4" data-name="Rectángulo 4" transform="translate(2359 817)" fill="#5ae0ff" stroke="#5ae0ff" stroke-width="1">
          <rect width="5" height="22" stroke="none"/>
          <rect x="0.5" y="0.5" width="4" height="21" fill="none"/>
        </g>
      </g>
    </g>
    <path id="Sustracción_3" data-name="Sustracción 3" d="M11,13.5c-2.225,0-4.14-1.29-4.454-3h8.909a3.371,3.371,0,0,1-1.494,2.136A5.3,5.3,0,0,1,11,13.5Z" transform="translate(1995.991 602) rotate(-90)" fill="#5ae0ff" stroke="#5ae0ff" stroke-width="1"/>
    <path id="Sustracción_4" data-name="Sustracción 4" d="M10.971,13.5c-2.21,0-4.112-1.29-4.425-3H15.4a3.372,3.372,0,0,1-1.484,2.136A5.244,5.244,0,0,1,10.971,13.5Z" transform="translate(2066.937 652.2) rotate(180)" fill="#5ae0ff" stroke="#5ae0ff" stroke-width="1"/>
  </g>
</svg>
