<svg xmlns="http://www.w3.org/2000/svg" xmlns:xlink="http://www.w3.org/1999/xlink" width="15.039" height="15.054" viewBox="0 0 15.039 15.054">
  <defs>
    <clipPath id="clip">
      <use xlink:href="#fill"/>
    </clipPath>
    <clipPath id="clip-2">
      <use xlink:href="#fill-2"/>
    </clipPath>
    <clipPath id="clip-3">
      <use xlink:href="#fill-3"/>
    </clipPath>
    <clipPath id="clip-4">
      <use xlink:href="#fill-4"/>
    </clipPath>
  </defs>
  <g id="Grupo_34" data-name="Grupo 34" transform="translate(-3148.499 -1444.99)">
    <g id="Grupo_33" data-name="Grupo 33">
      <g id="Grupo_10" data-name="Grupo 10" transform="translate(256.437 774.805)">
        <g id="Rectángulo_3" data-name="Rectángulo 3" transform="translate(2897.019 676.435)" fill="#5ae0ff" stroke="#5ae0ff" stroke-width="1">
          <rect id="fill" width="0.513" height="2.87" stroke="none"/>
          <path d="M0,0.5h0.5125732421875M0.5,0v2.870410203933716M0.5125732421875,2.370410203933716h-0.5125732421875M0.0125732421875,2.870410203933716v-2.870410203933716" fill="none" clip-path="url(#clip)"/>
        </g>
        <g id="Rectángulo_5" data-name="Rectángulo 5" transform="translate(2898.556 675)" fill="#5ae0ff" stroke="#5ae0ff" stroke-width="1">
          <rect id="fill-2" width="0.513" height="5.433" stroke="none"/>
          <path d="M0,0.5h0.5125732421875M0.5,0v5.433276176452637M0.5125732421875,4.933276176452637h-0.5125732421875M0.0125732421875,5.433276176452637v-5.433276176452637" fill="none" clip-path="url(#clip-2)"/>
        </g>
        <g id="Rectángulo_7" data-name="Rectángulo 7" transform="translate(2900.094 675.923)" fill="#5ae0ff" stroke="#5ae0ff" stroke-width="1">
          <rect id="fill-3" width="0.513" height="3.896" stroke="none"/>
          <path d="M0,0.5h0.5125732421875M0.5,0v3.895556688308716M0.5125732421875,3.395556688308716h-0.5125732421875M0.0125732421875,3.895556688308716v-3.895556688308716" fill="none" clip-path="url(#clip-3)"/>
        </g>
        <g id="Rectángulo_4" data-name="Rectángulo 4" transform="translate(2901.632 676.743)" fill="#5ae0ff" stroke="#5ae0ff" stroke-width="1">
          <rect id="fill-4" width="0.513" height="2.255" stroke="none"/>
          <path d="M0,0.5h0.5125732421875M0.5,0v2.255322217941284M0.5125732421875,1.7553222179412842h-0.5125732421875M0.0125732421875,2.255322217941284v-2.255322217941284" fill="none" clip-path="url(#clip-4)"/>
        </g>
      </g>
      <g id="Grupo_32" data-name="Grupo 32">
        <g id="Grupo_1" data-name="Grupo 1" transform="translate(3148.499 1445)">
          <g id="Sustracción_2" data-name="Sustracción 2" transform="translate(0 0)" fill="#5ae0ff" stroke-linecap="round">
            <path d="M 7.521926403045654 14.54385662078857 C 6.573746204376221 14.54385662078857 5.654206275939941 14.35826683044434 4.788836479187012 13.99223613739014 C 3.952736377716064 13.638596534729 3.201726198196411 13.13221645355225 2.556676387786865 12.48717594146729 C 1.911636233329773 11.84213638305664 1.405266284942627 11.09112644195557 1.051616311073303 10.2550163269043 C 0.6855862736701965 9.389646530151367 0.4999963045120239 8.47010612487793 0.4999963045120239 7.521926403045654 C 0.4999963045120239 6.573746204376221 0.6855862736701965 5.654206275939941 1.051616311073303 4.788836479187012 C 1.405266284942627 3.952726364135742 1.911636233329773 3.201716423034668 2.556676387786865 2.556676387786865 C 3.201716184616089 1.911636352539063 3.952726364135742 1.405266404151917 4.788836479187012 1.051616430282593 C 5.501245498657227 0.7502850890159607 6.250336170196533 0.5712457299232483 7.021926403045654 0.5173661112785339 L 7.021926403045654 0.9114737510681152 C 5.44188928604126 1.029018044471741 3.970944404602051 1.702150225639343 2.836536407470703 2.836576461791992 C 1.583186268806458 4.089916229248047 0.8929362893104553 5.753876209259033 0.8929362893104553 7.521926403045654 C 0.8929362893104553 11.17716598510742 3.866686344146729 14.15091609954834 7.521926403045654 14.15091609954834 C 10.91450691223145 14.15091609954834 13.7193775177002 11.61749935150146 14.10569381713867 8.300616264343262 L 14.50133419036865 8.300616264343262 C 14.42055702209473 9.036189079284668 14.22517681121826 9.748263359069824 13.91828632354736 10.42361640930176 C 13.55157661437988 11.23056602478027 13.04101657867432 11.95342636108398 12.40077590942383 12.572096824646 C 11.75954627990723 13.19171619415283 11.01852607727051 13.6774959564209 10.1983060836792 14.01592636108398 C 9.349316596984863 14.36623668670654 8.448856353759766 14.54385662078857 7.521926403045654 14.54385662078857 Z" stroke="none"/>
            <path d="M 7.521926403045654 15.04385662078857 C 6.506476402282715 15.04385662078857 5.521396160125732 14.8449764251709 4.594056129455566 14.45273685455322 C 3.698346376419067 14.07388687133789 2.893926382064819 13.53152656555176 2.203126192092896 12.84072685241699 C 1.512326240539551 12.14992618560791 0.9699662923812866 11.34549617767334 0.5911163091659546 10.44979667663574 C 0.198876291513443 9.522456169128418 -3.708496024046326e-06 8.537376403808594 -3.708496024046326e-06 7.521926403045654 C -3.708496024046326e-06 6.506466388702393 0.198876291513443 5.521396636962891 0.5911163091659546 4.594056606292725 C 0.9699662923812866 3.69835638999939 1.512326240539551 2.893926382064819 2.203126192092896 2.203126430511475 C 2.893926382064819 1.51232635974884 3.69835638999939 0.9699664115905762 4.594056129455566 0.5911164283752441 C 5.521396160125732 0.1988763958215714 6.506476402282715 -3.596954456952517e-06 7.521926403045654 -3.596954456952517e-06 L 7.521926403045654 1.3929363489151 C 5.887356281280518 1.393006443977356 4.348996162414551 2.031206369400024 3.190086364746094 3.190126419067383 C 2.031176328659058 4.34903621673584 1.3929363489151 5.887426376342773 1.3929363489151 7.521926403045654 C 1.3929363489151 10.90146636962891 4.142386436462402 13.65091609954834 7.521926403045654 13.65091609954834 C 10.80762672424316 13.65091609954834 13.49704647064209 11.08115673065186 13.64465618133545 7.800616264343262 L 15.03877639770508 7.800616264343262 C 15.00288581848145 8.786046028137207 14.77899646759033 9.738096237182617 14.37348651885986 10.63046646118164 C 13.9806661605835 11.49489593505859 13.43384647369385 12.26912593841553 12.74821662902832 12.93165683746338 C 12.06148624420166 13.59524631500244 11.26773643493652 14.11555671691895 10.38901615142822 14.47812652587891 C 9.479246139526367 14.85351657867432 8.514616012573242 15.04385662078857 7.521926403045654 15.04385662078857 Z" stroke="none" fill="#5ae0ff"/>
          </g>
        </g>
        <path id="Sustracción_3" data-name="Sustracción 3" d="M.645.418A.623.623,0,0,1,0,0H1.29a.47.47,0,0,1-.216.3A.79.79,0,0,1,.645.418Z" transform="translate(3155.99 1446.34) rotate(-90)" fill="#5ae0ff" stroke="#5ae0ff" stroke-width="0.1"/>
        <path id="Sustracción_4" data-name="Sustracción 4" d="M.635.418A.614.614,0,0,1,0,0H1.27a.47.47,0,0,1-.213.3A.769.769,0,0,1,.635.418Z" transform="translate(3163.47 1452.788) rotate(180)" fill="#5ae0ff" stroke="#5ae0ff" stroke-width="0.1"/>
      </g>
    </g>
    <text id="ERCOM" transform="translate(3150.6 1451)" fill="#fff" font-size="3.25" font-family="Rockwell-Italic, Rockwell" font-style="italic" letter-spacing="-0.01em"><tspan x="0" y="3">ERCOM</tspan></text>
  </g>
</svg>
