<svg xmlns="http://www.w3.org/2000/svg" xmlns:xlink="http://www.w3.org/1999/xlink" width="1130" height="1142" viewBox="0 0 1130 1142">
  <defs>
    <radialGradient id="radial-gradient" cx="0.5" cy="0.5" r="0.947" gradientTransform="matrix(1, 0, 0, 1.079, 0, -0.039)" gradientUnits="objectBoundingBox">
      <stop offset="0" stop-color="#7b3209"/>
      <stop offset="0.176" stop-color="#984f11"/>
      <stop offset="0.343" stop-color="#8a3901"/>
      <stop offset="0.512" stop-color="#7e3304"/>
      <stop offset="0.657" stop-color="#7b2504"/>
      <stop offset="1" stop-color="#d26b32"/>
      <stop offset="1" stop-color="#e95707"/>
    </radialGradient>
    <filter id="GOA" x="294.099" y="657.095" width="621.5" height="289.5" filterUnits="userSpaceOnUse">
      <feOffset dx="40" dy="20" input="SourceAlpha"/>
      <feGaussianBlur stdDeviation="0.5" result="blur"/>
      <feFlood flood-color="#413c2d" flood-opacity="0.451"/>
      <feComposite operator="in" in2="blur"/>
      <feComposite in="SourceGraphic"/>
    </filter>
  </defs>
  <g id="LOGO_grande" data-name="LOGO grande" transform="translate(-365 -973.155)">
    <rect id="Rectángulo_26" data-name="Rectángulo 26" width="830" height="842" rx="415" transform="translate(515 1123.155)" fill="#953500" opacity="0.78"/>
    <g id="Grupo_40" data-name="Grupo 40" transform="translate(663.099 1196.617)">
      <g id="Grupo_37" data-name="Grupo 37">
        <g id="Sustracción_28" data-name="Sustracción 28" transform="matrix(1, -0.017, 0.017, 1, 3.785, 24.957)" stroke-linecap="round" fill="url(#radial-gradient)">
          <path d="M 402.9439086914063 498.0355834960938 C 355.9117736816406 481.3692321777344 306.855224609375 472.9196166992188 257.0997009277344 472.9196166992188 L 256.99169921875 472.9196166992188 C 207.8464660644531 472.9334411621094 159.3953704833984 481.1780395507813 112.9549102783203 497.4247131347656 C 98.35614776611328 464.2531127929688 79.74639892578125 432.8855285644531 57.62185668945313 404.1612548828125 C 56.93349838256836 403.2667541503906 56.27721405029297 402.4259033203125 55.72614288330078 401.7214050292969 C 41.16722869873047 383.086669921875 25.05435943603516 365.5291442871094 7.819867134094238 349.5183410644531 C 13.67091274261475 320.2730712890625 16.64053726196289 290.2720947265625 16.64749908447266 260.3241271972656 L 16.64749908447266 260.2188415527344 C 16.64052963256836 223.3002471923828 12.15149021148682 186.5011138916016 3.303297758102417 150.8138885498047 C 30.98847389221191 132.1292419433594 56.63607788085938 110.2019577026367 79.55892944335938 85.6175537109375 C 80.44657897949219 84.66650390625 81.12370300292969 83.93462371826172 81.68858337402344 83.31548309326172 C 104.0100402832031 59.04400253295898 123.6475296020508 32.29072189331055 140.0819244384766 3.766448020935059 C 188.25 21.33408355712891 238.5725555419922 30.23919486999512 289.6990051269531 30.23919486999512 C 329.2795715332031 30.23919486999512 368.6538696289063 24.85441207885742 406.765625 14.23300266265869 C 429.1584167480469 54.72610855102539 457.4639282226563 91.28309631347656 490.92822265625 122.9266204833984 L 490.9312744140625 122.9294815063477 L 490.9343566894531 122.9324111938477 C 491.8035583496094 123.7497634887695 492.5249938964844 124.4266967773438 493.2045593261719 125.0628356933594 L 493.206787109375 125.0649108886719 L 493.208984375 125.0669784545898 C 504.6330871582031 135.7175140380859 516.7361450195313 145.8657989501953 529.2064208984375 155.2515563964844 C 522.4375610351563 186.6449890136719 519.00244140625 218.8791961669922 518.9955444335938 251.0873413085938 L 518.9955444335938 251.1890563964844 C 518.9989624023438 285.338134765625 522.8341064453125 319.3961791992188 530.3951416015625 352.4398193359375 C 522.6156005859375 358.1469116210938 514.9581298828125 364.1604309082031 507.6205749511719 370.3255615234375 L 507.6257019042969 370.3211975097656 C 506.9180603027344 370.9130554199219 506.1630554199219 371.5498962402344 505.2495727539063 372.3254089355469 C 463.7437438964844 407.6385192871094 429.3345947265625 449.921630859375 402.9439086914063 498.0355834960938 Z" stroke="none"/>
          <path d="M 401.5429382324219 494.3660888671875 C 427.9457702636719 446.8528137207031 462.1625671386719 405.0449523925781 503.3080139160156 370.0384216308594 L 505.6907043457031 368.0286254882813 C 512.580078125 362.2401428222656 519.7481079101563 356.5853576660156 527.0357666015625 351.18896484375 C 519.7127075195313 318.528076171875 515.9989624023438 284.8984069824219 515.9955444335938 251.0867004394531 C 516.0023193359375 219.305419921875 519.3243408203125 187.5030975341797 525.8739624023438 156.4929504394531 C 513.8594360351563 147.3687438964844 502.1958618164063 137.5468139648438 491.1543579101563 127.2530517578125 L 488.8670654296875 125.1064071655273 C 455.7490234375 93.79032897949219 427.6489562988281 57.69241333007813 405.2904052734375 17.7518253326416 C 367.6273803710938 28.02983093261719 328.7627258300781 33.23919677734375 289.6990051269531 33.23919677734375 C 239.0576477050781 33.23919677734375 189.1985931396484 24.56154251098633 141.4195098876953 7.440086841583252 C 125.1326675415039 35.34442901611328 105.7963409423828 61.53476333618164 83.9056396484375 85.33647918701172 L 81.75314331054688 87.66348266601563 C 59.15457153320313 111.9000549316406 33.92534255981445 133.5715789794922 6.714288711547852 152.1251831054688 C 15.29110717773438 187.4129943847656 19.64066123962402 223.7599029541016 19.64749908447266 260.3247680664063 C 19.64066505432129 289.9092102050781 16.76149940490723 319.5448608398438 11.08723068237305 348.4633178710938 C 27.97673225402832 364.2734985351563 43.7790641784668 381.556884765625 58.0890007019043 399.8729858398438 L 59.99856948852539 402.3306274414063 C 81.70789337158203 430.5157470703125 100.0551528930664 461.2282409667969 114.5785903930664 493.6874694824219 C 160.5406646728516 477.9285278320313 208.4326477050781 469.9333190917969 257.0997009277344 469.9196166992188 C 306.3517150878906 469.9196166992188 354.9220886230469 478.1427001953125 401.5429382324219 494.3660888671875 M 404.1657104492188 501.6602783203125 L 404.1622009277344 501.6567687988281 C 356.7770080566406 484.5791320800781 307.2975769042969 475.9196166992188 257.0997009277344 475.9196166992188 L 256.99169921875 475.9196166992188 C 207.5177154541016 475.9335632324219 158.7552185058594 484.3453979492188 112.0585708618164 500.9214172363281 L 111.6473541259766 500.7053527832031 L 111.6299285888672 500.6949157714844 C 111.406852722168 500.5763244628906 111.1803588867188 500.4579162597656 110.9572830200195 500.3428955078125 C 96.34592437744141 466.7617797851563 77.60228729248047 435.0181274414063 55.24514389038086 405.9919128417969 C 54.59342956542969 405.1450500488281 53.97657012939453 404.3539123535156 53.36321258544922 403.56982421875 C 38.58699798583984 384.6569213867188 22.20192718505859 366.8636169433594 4.662999153137207 350.6840515136719 L 4.6281418800354 350.4574890136719 L 4.603785037994385 350.2901916503906 C 10.59778499603271 320.8081970214844 13.64049911499023 290.53955078125 13.64749908447266 260.3233947753906 L 13.64749908447266 260.2188415527344 C 13.64049911499023 223.0033416748047 9.048856735229492 185.909912109375 -8.719307516003028e-07 149.9690551757813 C 0.03578484058380127 149.8300476074219 0.06128484383225441 149.7132720947266 0.08021341264247894 149.5996246337891 L 0.09064198285341263 149.5543365478516 L 0.1463562697172165 149.3208312988281 C 28.20857048034668 130.5487670898438 54.18807220458984 108.428337097168 77.36478424072266 83.57169342041016 C 78.24471282958984 82.62890625 78.91471099853516 81.90469360351563 79.47328186035156 81.29248046875 C 102.2180023193359 56.5621223449707 122.1558532714844 29.23955154418945 138.7332153320313 0.08362390100955963 L 138.5832824707031 0.02790961600840092 L 138.5554962158203 0.01740961521863937 L 138.6048583984375 0.01398104429244995 L 138.7819976806641 -1.895577588584274e-05 L 138.7330017089844 0.07348104566335678 C 187.2854919433594 18.09733772277832 238.0783538818359 27.23919486999512 289.6990051269531 27.23919486999512 C 329.8002014160156 27.23919486999512 369.6854248046875 21.67433738708496 408.2467041015625 10.69912433624268 L 408.2048645019531 10.61876678466797 L 408.1630554199219 10.53883838653564 L 408.1282043457031 10.47612380981445 L 408.1142883300781 10.45519542694092 L 408.0690002441406 10.36805248260498 L 408.0097961425781 10.26005268096924 L 407.9574279785156 10.16240978240967 L 407.8982849121094 10.05790996551514 L 407.8807983398438 10.01955223083496 C 408.373291015625 10.17548084259033 408.8852844238281 10.29448127746582 409.4072875976563 10.36805248260498 L 409.1980590820313 10.42383861541748 L 408.4977111816406 10.62598133087158 L 408.3199157714844 10.67826652526855 L 408.2467041015625 10.69912433624268 C 430.6636352539063 51.74441146850586 459.1744384765625 88.77169799804688 492.9894409179688 120.7468414306641 C 493.7492065429688 121.4612655639648 494.4914855957031 122.1582641601563 495.2546997070313 122.8726959228516 C 507.0274353027344 133.8481903076172 519.5267333984375 144.2873382568359 532.405517578125 153.9001922607422 L 532.5170288085938 154.1476287841797 C 525.5425415039063 185.8809051513672 522.0025024414063 218.4954833984375 521.9955444335938 251.0879821777344 L 521.9955444335938 251.1890563964844 C 521.9990234375 285.58154296875 525.9141845703125 319.8784790039063 533.6321411132813 353.1270446777344 C 533.4571533203125 353.4696350097656 533.3148803710938 353.7646179199219 533.1409301757813 354.148193359375 C 525.0813598632813 360.0263977050781 517.144775390625 366.2415466308594 509.5504150390625 372.6224060058594 C 508.7628479003906 373.2811279296875 507.9752197265625 373.94677734375 507.1911315917969 374.6123962402344 C 465.35400390625 410.2073974609375 430.7733459472656 452.9371948242188 404.4096374511719 501.6148986816406 L 404.2807006835938 501.6393432617188 L 404.1622009277344 501.6532592773438 L 404.1657104492188 501.6602783203125 Z" stroke="none" fill="#2a1303"/>
        </g>
        <g id="Grupo_7" data-name="Grupo 7" transform="matrix(1, -0.017, 0.017, 1, 77.865, 75.971)">
          <g id="Grupo_6" data-name="Grupo 6" transform="translate(0 0)">
            <g id="Grupo_5" data-name="Grupo 5" transform="translate(0 0)">
              <g id="Trazado_29" data-name="Trazado 29" transform="translate(96.21 1.682)" stroke-linecap="round">
                <path d="M 97.82721710205078 197.9569091796875 L 97.80311584472656 197.9569091796875 C 91.19917297363281 197.9569091796875 84.59982299804688 197.2824096679688 78.18836975097656 195.9521331787109 C 71.93999481201172 194.6556854248047 65.79414367675781 192.7211761474609 59.92154312133789 190.2023620605469 C 54.15526962280273 187.7291107177734 48.59389495849609 184.6678619384766 43.39186859130859 181.1036224365234 C 38.23896789550781 177.5730285644531 33.39359283447266 173.518310546875 28.99036979675293 169.0520477294922 C 24.58699417114258 164.5856475830078 20.5894947052002 159.6709289550781 17.10894393920898 154.4443817138672 C 13.59496974945068 149.1677093505859 10.57716941833496 143.5265808105469 8.139294624328613 137.6777496337891 C 5.656369686126709 131.7207794189453 3.749819755554199 125.4867324829102 2.472619771957397 119.1487808227539 C 1.16206967830658 112.6452331542969 0.4983696639537811 105.9512023925781 0.4999946653842926 99.25263214111328 C 0.5016196370124817 92.55323028564453 1.168769598007202 85.85805511474609 2.48294472694397 79.35302734375 C 3.763644695281982 73.01365661621094 5.673819541931152 66.77790832519531 8.160444259643555 60.8189811706543 C 10.60192012786865 54.96823120117188 13.62341976165771 49.32503128051758 17.14101982116699 44.04607772827148 C 20.62519454956055 38.81730270385742 24.62624549865723 33.90023040771484 29.03302001953125 29.43142890930176 C 33.43969345092773 24.96275520324707 38.28834533691406 20.90555381774902 43.44432067871094 17.37257957458496 C 48.64944458007813 13.80585479736328 54.21371841430664 10.7422046661377 59.98252105712891 8.266704559326172 C 65.85777282714844 5.745529651641846 72.00592041015625 3.808829545974731 78.25617218017578 2.510354518890381 C 84.66959381103516 1.178004622459412 91.27052307128906 0.5016295909881592 97.87554168701172 0.5000045895576477 L 97.89964294433594 0.5000045895576477 C 104.5035934448242 0.5000045895576477 111.1029434204102 1.174504637718201 117.5143966674805 2.504779577255249 C 123.7627716064453 3.801229476928711 129.9086151123047 5.735729694366455 135.7812194824219 8.254554748535156 C 141.5475006103516 10.72780418395996 147.1089019775391 13.78905487060547 152.3109130859375 17.35327911376953 C 157.4638214111328 20.88387870788574 162.3091735839844 24.9386043548584 166.7124176025391 29.40485382080078 C 171.1157684326172 33.87125396728516 175.1132659912109 38.78598022460938 178.5938415527344 44.01253128051758 C 182.1077880859375 49.28920364379883 185.1256256103516 54.93032836914063 187.5634765625 60.77915573120117 C 190.0464172363281 66.73612976074219 191.9529418945313 72.97017669677734 193.2301483154297 79.30812835693359 C 194.5407257080078 85.81167602539063 195.2043914794922 92.50570678710938 195.2027740478516 99.20427703857422 C 195.2011413574219 105.903678894043 194.5339965820313 112.5988540649414 193.2198486328125 119.1038818359375 C 191.9391479492188 125.4432525634766 190.0289764404297 131.6790008544922 187.5423431396484 137.6379241943359 C 185.1008758544922 143.4886779785156 182.0793762207031 149.1318817138672 178.561767578125 154.4108276367188 C 175.0775909423828 159.6396026611328 171.0765380859375 164.5566864013672 166.6697692871094 169.0254821777344 C 162.2630920410156 173.4941558837891 157.4144134521484 177.5513610839844 152.2584686279297 181.0843353271484 C 147.0533142089844 184.6510620117188 141.4890747070313 187.7147064208984 135.7202453613281 190.1902008056641 C 129.8450012207031 192.7113800048828 123.6968460083008 194.6480865478516 117.4465942382813 195.9465484619141 C 111.0331726074219 197.2789001464844 104.432243347168 197.9552764892578 97.82721710205078 197.9569091796875 Z" stroke="none"/>
                <path d="M 97.87567138671875 1 C 91.30469512939453 1.001632690429688 84.73794555664063 1.674484252929688 78.35787200927734 2.999908447265625 C 72.14029693603516 4.291580200195313 66.02427673339844 6.218185424804688 60.1796875 8.726181030273438 C 54.44076538085938 11.18885803222656 48.90524291992188 14.23670959472656 43.72691345214844 17.7850341796875 C 38.59727478027344 21.30000305175781 33.7733154296875 25.33653259277344 29.38902282714844 29.78250122070313 C 25.0045166015625 34.22869873046875 21.02366638183594 39.12095642089844 17.55709838867188 44.32333374023438 C 14.05726623535156 49.57562255859375 11.051025390625 55.19032287597656 8.621871948242188 61.01153564453125 C 6.1478271484375 66.94035339355469 4.247268676757813 73.14463043212891 2.9730224609375 79.4520263671875 C 1.665451049804688 85.92457580566406 1.001617431640625 92.58650207519531 1 99.25275421142578 C 0.9983673095703125 105.9181823730469 1.658737182617188 112.5789566040039 2.9627685546875 119.0499801635742 C 4.2335205078125 125.35595703125 6.130447387695313 131.5585021972656 8.600814819335938 137.4853820800781 C 11.02635192871094 143.3046264648438 14.02890014648438 148.9172058105469 17.52510070800781 154.167236328125 C 20.98806762695313 159.3673553466797 24.96534729003906 164.2572021484375 29.34642028808594 168.7010040283203 C 33.72724914550781 173.14453125 38.54789733886719 177.1785736083984 43.67446899414063 180.6911315917969 C 48.84963989257813 184.2369842529297 54.38226318359375 187.2824249267578 60.11863708496094 189.7428283691406 C 65.96054077148438 192.2484741210938 72.07427215576172 194.1728820800781 78.28994750976563 195.4625549316406 C 84.66804504394531 196.7859039306641 91.23322296142578 197.4569091796875 97.80311584472656 197.4569091796875 L 97.82709503173828 197.4569091796875 C 104.3980712890625 197.4552764892578 110.9648208618164 196.7824249267578 117.3448944091797 195.4570007324219 C 123.5624694824219 194.1653289794922 129.6784973144531 192.2387237548828 135.5230712890625 189.7306976318359 C 141.2619934082031 187.2680358886719 146.7975158691406 184.2201995849609 151.9758453369141 180.671875 C 157.1054992675781 177.1569061279297 161.9294738769531 173.1203765869141 166.3137512207031 168.6744079589844 C 170.6982727050781 164.2281799316406 174.6790924072266 159.3359375 178.1456909179688 154.1335601806641 C 181.6455230712891 148.8812561035156 184.6517639160156 143.2665557861328 187.0809020996094 137.4453582763672 C 189.5549621582031 131.5165557861328 191.4555206298828 125.312255859375 192.7297515869141 119.0048522949219 C 194.0373382568359 112.5323333740234 194.701171875 105.8704071044922 194.7027740478516 99.20415496826172 C 194.7043914794922 92.53870391845703 194.0440216064453 85.87795257568359 192.739990234375 79.40690612792969 C 191.46923828125 73.10092926025391 189.5723419189453 66.89837646484375 187.1019744873047 60.97152709960938 C 184.6764526367188 55.15228271484375 181.6738739013672 49.5396728515625 178.1776733398438 44.2896728515625 C 174.7146911621094 39.08955383300781 170.7374420166016 34.19967651367188 166.3563385009766 29.75590515136719 C 161.9755249023438 25.3123779296875 157.1548767089844 21.27830505371094 152.0282897949219 17.7657470703125 C 146.8531188964844 14.21990966796875 141.3204956054688 11.17448425292969 135.5841217041016 8.714080810546875 C 129.7422180175781 6.20843505859375 123.6284942626953 4.284027099609375 117.4128189086914 2.994354248046875 C 111.0347213745117 1.671005249023438 104.4695434570313 1 97.89964294433594 1 L 97.87567138671875 1 M 97.89964294433594 0 C 151.932373046875 0 195.716064453125 44.40873718261719 195.7027740478516 99.20440673828125 C 195.6895141601563 154.0067291259766 151.8691711425781 198.4436340332031 97.82734680175781 198.4569091796875 C 97.82074737548828 198.4569091796875 97.80972290039063 198.4569091796875 97.80312347412109 198.4569091796875 C 43.77040100097656 198.4569091796875 -0.013275146484375 154.0481414794922 0 99.25250244140625 C 0.013275146484375 44.45013427734375 43.83358764648438 0.013275146484375 97.87541961669922 0 C 97.88201904296875 0 97.89304351806641 0 97.89964294433594 0 Z" stroke="none" fill="#000"/>
              </g>
              <g id="Trazado_30" data-name="Trazado 30" transform="translate(225.6 131.253) rotate(180)" fill="#fff" stroke-linecap="round">
                <path d="M 31.53101539611816 63.4654426574707 L 31.52332496643066 63.4654426574707 C 27.33442497253418 63.4654426574707 23.27140426635742 62.63375473022461 19.44712448120117 60.99347305297852 C 15.75253486633301 59.4088249206543 12.43454551696777 57.13997268676758 9.585305213928223 54.24995422363281 C 6.735555171966553 51.35943222045898 4.498475074768066 47.99331283569336 2.936175107955933 44.24511337280273 C 1.318625092506409 40.36432266235352 0.4989751279354095 36.24131393432617 0.5000051259994507 31.99060249328613 C 0.5010350942611694 27.7393627166748 1.322955131530762 23.61541366577148 2.942935228347778 19.73330307006836 C 4.507585048675537 15.98381328582764 6.747014999389648 12.61622333526611 9.599024772644043 9.724082946777344 C 12.45056533813477 6.832423210144043 15.77057552337646 4.56199312210083 19.46684455871582 2.975863218307495 C 23.29290580749512 1.334033250808716 27.35717582702637 0.5010332465171814 31.54675483703613 0.5000032186508179 L 31.55444526672363 0.5000032186508179 C 35.74334335327148 0.5000032186508179 39.80636596679688 1.331693291664124 43.63064575195313 2.971973180770874 C 47.32523345947266 4.556623458862305 50.64323425292969 6.825473308563232 53.49247360229492 9.715493202209473 C 56.34221649169922 12.60601329803467 58.57930374145508 15.97213363647461 60.14159393310547 19.7203426361084 C 61.7591438293457 23.60112380981445 62.57879638671875 27.72414398193359 62.57776641845703 31.974853515625 C 62.57673645019531 36.22609329223633 61.75481414794922 40.35004425048828 60.13483428955078 44.23215484619141 C 58.57019424438477 47.98164367675781 56.33076477050781 51.3492317199707 53.47875595092773 54.24137496948242 C 50.62721633911133 57.13302230834961 47.30720520019531 59.4034538269043 43.61093521118164 60.98958206176758 C 39.78487396240234 62.63141250610352 35.72059631347656 63.46441268920898 31.53101539611816 63.4654426574707 Z" stroke="none"/>
                <path d="M 31.54688453674316 1.000003814697266 C 27.42543411254883 1.001014709472656 23.42745590209961 1.820384979248047 19.66401672363281 3.435344696044922 C 16.02749633789063 4.995841979980469 12.76092529296875 7.229793548583984 9.955036163330078 10.07515335083008 C 7.148204803466797 12.92148208618164 4.944236755371094 16.23574447631836 3.404376983642578 19.92586135864258 C 1.809963226318359 23.74668502807617 1.001014709472656 27.80589294433594 1.000003814697266 31.99072265625 C 0.9989967346191406 36.17501068115234 1.805686950683594 40.23326110839844 3.397693634033203 44.05274200439453 C 4.935214996337891 47.74151229858398 7.136814117431641 51.05425262451172 9.941356658935547 53.89892196655273 C 12.74491500854492 56.74260330200195 16.00942611694336 58.97495269775391 19.64421463012695 60.53396224975586 C 23.40586471557617 62.14737319946289 27.4025764465332 62.9654426574707 31.52332496643066 62.9654426574707 L 31.53088569641113 62.9654426574707 C 35.65233612060547 62.96443176269531 39.65031433105469 62.14506149291992 43.41376495361328 60.53010177612305 C 47.05028533935547 58.96961212158203 50.31685638427734 56.73565292358398 53.12273406982422 53.89029312133789 C 55.92957305908203 51.04397201538086 58.1335334777832 47.72971343994141 59.67340469360352 44.03959274291992 C 61.26780700683594 40.21877288818359 62.07675552368164 36.15956115722656 62.07776641845703 31.97473335266113 C 62.07877349853516 27.79044342041016 61.2720832824707 23.73218154907227 59.68007659912109 19.91270446777344 C 58.14255523681641 16.22393417358398 55.94095611572266 12.91120147705078 53.13641357421875 10.06652450561523 C 50.33285522460938 7.222843170166016 47.06834411621094 4.990493774414063 43.43355560302734 3.431484222412109 C 39.67190551757813 1.818073272705078 35.67519378662109 1.000003814697266 31.55444526672363 1.000003814697266 L 31.54688453674316 1.000003814697266 M 31.55444526672363 3.814697265625e-06 C 48.96996307373047 3.814697265625e-06 63.0820426940918 14.31356048583984 63.07776641845703 31.97497367858887 C 63.07349395751953 49.63855361938477 48.9495849609375 63.96116256713867 31.53113555908203 63.9654426574707 C 31.52900886535645 63.9654426574707 31.52545166015625 63.9654426574707 31.52332496643066 63.9654426574707 C 14.10780715942383 63.9654426574707 -0.0042724609375 49.65188598632813 3.814697265625e-06 31.99048233032227 C 0.004283905029296875 14.326904296875 14.12819671630859 0.004283905029296875 31.54663467407227 3.814697265625e-06 C 31.54876136779785 3.814697265625e-06 31.55231857299805 3.814697265625e-06 31.55444526672363 3.814697265625e-06 Z" stroke="none" fill="#fff"/>
              </g>
              <g id="Sustracción_1" data-name="Sustracción 1" transform="translate(0 1.73)" stroke-linecap="round">
                <path d="M 175.4390411376953 393.7991027832031 C 155.9673461914063 391.8456115722656 137.0432434082031 386.9471740722656 118.9789352416992 379.1700744628906 C 95.87339019775391 369.2166442871094 75.12583923339844 354.9950256347656 57.31258773803711 336.9002990722656 C 39.49973678588867 318.8058776855469 25.51388740539551 297.7381896972656 15.74353694915771 274.2824401855469 C 5.628637313842773 250.0066833496094 0.4999871253967285 224.2179870605469 0.4999871253967285 197.6326293945313 C 0.4999871253967285 171.0448303222656 5.629837036132813 145.2502899169922 15.74703693389893 120.9654388427734 C 25.52093696594238 97.51078796386719 39.51263809204102 76.43958282470703 57.33353805541992 58.33713531494141 C 75.15438842773438 40.2416877746582 95.91013336181641 26.02353668212891 119.0241851806641 16.07778549194336 C 137.0779571533203 8.308615684509277 155.9859924316406 3.416810512542725 175.4402008056641 1.466229438781738 C 130.5441284179688 10.68401908874512 96.54493713378906 51.14306640625 96.54493713378906 99.22503662109375 C 96.54493713378906 148.0657043457031 131.6850738525391 189.7770690917969 178.8235168457031 197.6317749023438 C 131.6535949707031 205.4632720947266 96.49613952636719 247.1775970458984 96.49613952636719 296.0437927246094 C 96.49613952636719 343.9324951171875 130.5861053466797 384.556884765625 175.4390411376953 393.7991027832031 Z" stroke="none"/>
                <path d="M 167.5193481445313 392.3327331542969 C 126.3573760986328 380.1817932128906 95.99613952636719 341.3464965820313 95.99613952636719 296.0437927246094 C 95.99613952636719 247.8809814453125 129.9873809814453 206.629638671875 176.0164489746094 197.6310424804688 C 130.0137329101563 188.6140747070313 96.04493713378906 147.3656921386719 96.04493713378906 99.22503662109375 C 96.04493713378906 53.75282287597656 126.3030090332031 15.06468296051025 167.4730987548828 2.938905954360962 C 150.8870849609375 5.313349723815918 134.7389373779297 9.859477043151855 119.2217864990234 16.53703689575195 C 96.16743469238281 26.45718574523926 75.46503448486328 40.63878631591797 57.68988800048828 58.68793487548828 C 39.91403579711914 76.74458312988281 25.95773696899414 97.76248931884766 16.20858764648438 121.1576843261719 C 6.116887092590332 145.3812866210938 0.9999871253967285 171.1111907958984 0.9999871253967285 197.6326293945313 C 0.9999871253967285 224.1516418457031 6.115736961364746 249.8756408691406 16.20508766174316 274.0901794433594 C 25.95068740844727 297.486572265625 39.90113830566406 318.5009460449219 57.66893768310547 336.5494995117188 C 75.43658447265625 354.5979919433594 96.13083648681641 368.7831420898438 119.1766891479492 378.7108459472656 C 134.7185516357422 385.4019470214844 150.9005126953125 389.9568481445313 167.5193481445313 392.3327331542969 M 192.9412841796875 395.2589721679688 C 167.2289886474609 395.0037231445313 142.2779388427734 389.7451782226563 118.7812347412109 379.6293334960938 C 95.61589050292969 369.650146484375 74.81498718261719 355.3919982910156 56.9562873840332 337.2510375976563 C 39.09828567504883 319.11083984375 25.0770378112793 297.9898376464844 15.28198719024658 274.4747009277344 C 5.141637325286865 250.1378326416016 -1.286621136387112e-05 224.2844848632813 -1.286621136387112e-05 197.6326293945313 C -1.286621136387112e-05 170.9784393310547 5.142786979675293 145.1191864013672 15.28548717498779 120.7731323242188 C 25.08413696289063 97.25908660888672 39.11133575439453 76.13453674316406 56.97723770141602 57.98638534545898 C 74.84373474121094 39.84453582763672 95.65283966064453 25.58993530273438 118.8265380859375 15.61848640441895 C 142.6643829345703 5.360236167907715 167.9865875244141 0.1054360866546631 194.0898895263672 -1.391601563227596e-05 C 140.5791320800781 0.4388360977172852 97.04493713378906 44.94753646850586 97.04493713378906 99.22503662109375 C 97.04493713378906 148.9627380371094 133.6651916503906 191.2688293457031 182.2267303466797 197.6326293945313 C 133.6373443603516 203.9755859375 96.99613952636719 246.2798919677734 96.99613952636719 296.0437927246094 C 96.99613952636719 349.7205810546875 140.0369873046875 394.2248840332031 192.9413909912109 395.2512512207031 L 192.9412841796875 395.2589721679688 Z" stroke="none" fill="#000"/>
              </g>
              <g id="Unión_1" data-name="Unión 1" transform="translate(92.952 0)" fill="#fff" stroke-linecap="round">
                <path d="M 100.0490570068359 396.4795227050781 C 93.29430389404297 396.4795227050781 86.54395294189453 395.8018493652344 79.98550415039063 394.4653015136719 C 73.59400939941406 393.1628112792969 67.30715942382813 391.2192993164063 61.29950714111328 388.6887512207031 C 55.40090560913086 386.2041625976563 49.71165466308594 383.1288757324219 44.38975524902344 379.5482482910156 C 39.11840438842773 376.0016479492188 34.16140747070313 371.9286193847656 29.6565055847168 367.4422607421875 C 25.15165519714355 362.9559020996094 21.06180572509766 358.0193481445313 17.50055503845215 352.769775390625 C 13.90530586242676 347.4699096679688 10.81735610961914 341.8042602539063 8.322555541992188 335.9300537109375 C 5.781705856323242 329.9474182128906 3.830255746841431 323.6866760253906 2.522405624389648 317.3217468261719 C 1.180455684661865 310.7906188964844 0.5000057220458984 304.068359375 0.5000057220458984 297.3417053222656 C 0.5000057220458984 290.6146545410156 1.180455684661865 283.8919982910156 2.522405624389648 277.3605041503906 C 3.830255746841431 270.9952697753906 5.781705856323242 264.7342529296875 8.322555541992188 258.7513732910156 C 10.81735610961914 252.8769683837891 13.90530586242676 247.2110595703125 17.50060653686523 241.9110565185547 C 21.06180572509766 236.6612548828125 25.15165519714355 231.7245635986328 29.6565055847168 227.2381134033203 C 34.16140747070313 222.7516632080078 39.11835479736328 218.6785125732422 44.38975524902344 215.1318664550781 C 49.71160507202148 211.5512084960938 55.40090560913086 208.4758605957031 61.29955673217773 205.9912109375 C 67.30710601806641 203.4606628417969 73.59400939941406 201.5171051025391 79.98550415039063 200.2146148681641 C 86.54395294189453 198.8780670166016 93.29430389404297 198.2004089355469 100.0490570068359 198.2004089355469 C 103.3327560424805 198.2004089355469 106.6457061767578 198.3615112304688 109.8959045410156 198.6792144775391 L 109.9570541381836 198.6851654052734 L 110.0178527832031 198.6761627197266 C 158.8298492431641 191.4419097900391 195.6389007568359 148.8646545410156 195.6389007568359 99.63780975341797 C 195.6389007568359 51.43740463256836 160.7821655273438 10.69654655456543 114.8642425537109 1.46061635017395 C 134.7122802734375 3.408122539520264 154.0006256103516 8.292745590209961 172.4139099121094 16.04946136474609 C 196.0845031738281 26.02316093444824 217.3421020507813 40.29706192016602 235.5961608886719 58.47461318969727 C 253.8513031005859 76.66030883789063 268.1835632324219 97.83106231689453 278.1946411132813 121.3988647460938 C 288.5606994628906 145.8053588867188 293.8167114257813 171.7301635742188 293.8167114257813 198.4531555175781 C 293.8167114257813 225.1773681640625 288.5606994628906 251.1010131835938 278.1946411132813 275.5039978027344 C 268.1835021972656 299.0753173828125 253.8513031005859 320.2461242675781 235.5960998535156 338.4283142089844 C 217.3420562744141 356.6093139648438 196.0845031738281 370.8832092285156 172.4139099121094 380.8533630371094 C 153.6953582763672 388.739013671875 133.9470520019531 393.6847534179688 113.7176055908203 395.55322265625 L 113.7067565917969 395.55419921875 L 113.6959533691406 395.5557250976563 C 109.2071533203125 396.168701171875 104.6157073974609 396.4795227050781 100.0490570068359 396.4795227050781 Z" stroke="none"/>
                <path d="M 100.0490570068359 395.9795227050781 C 104.5931549072266 395.9795227050781 109.1618576049805 395.6702575683594 113.628303527832 395.060302734375 L 113.64990234375 395.057373046875 L 113.6716537475586 395.0553588867188 C 133.8500518798828 393.1916198730469 153.5485076904297 388.2583618164063 172.2198028564453 380.3925476074219 C 195.8308563232422 370.4474487304688 217.0350036621094 356.20947265625 235.2432556152344 338.0740661621094 C 253.4524993896484 319.9375610351563 267.7485961914063 298.8202209472656 277.7344665527344 275.3085632324219 C 288.0740661621094 250.9676666259766 293.3167114257813 225.1098175048828 293.3167114257813 198.4531555175781 C 293.3167114257813 171.7977142333984 288.0740661621094 145.9386596679688 277.7344665527344 121.5943145751953 C 267.7486572265625 98.08621215820313 253.4525604248047 76.96881103515625 235.2433624267578 58.82891082763672 C 217.0350494384766 40.6969108581543 195.8308563232422 26.4588623046875 172.2198028564453 16.51021194458008 C 156.3869171142578 9.840519905090332 139.9057159423828 5.299827098846436 122.9764556884766 2.929398536682129 C 165.1063385009766 15.08810424804688 196.1389007568359 54.04127883911133 196.1389007568359 99.63780975341797 C 196.1389007568359 149.1106109619141 159.1464080810547 191.9004669189453 110.0911560058594 199.1707611083984 L 109.9696044921875 199.1887664794922 L 109.8472595214844 199.1768188476563 C 106.6132049560547 198.8607177734375 103.3166046142578 198.7004089355469 100.0490570068359 198.7004089355469 C 93.3277587890625 198.7004089355469 86.61100769042969 199.3747100830078 80.08535766601563 200.7045593261719 C 73.72605895996094 202.0004577636719 67.47090911865234 203.9342041015625 61.49360656738281 206.4520111083984 C 55.62465667724609 208.9241638183594 49.96400451660156 211.9840545654297 44.66890716552734 215.5467071533203 C 39.42385482788086 219.0756072998047 34.49170684814453 223.12841796875 30.00935554504395 227.5924072265625 C 25.52705574035645 232.0563659667969 21.45770645141602 236.9683074951172 17.91435623168945 242.1917114257813 C 14.33725547790527 247.4649658203125 11.26495552062988 253.1021575927734 8.782805442810059 258.9468078613281 C 6.254855632781982 264.8992004394531 4.313355922698975 271.1283569335938 3.012205600738525 277.4611511230469 C 1.677005767822266 283.9596252441406 1.000005722045898 290.6483764648438 1.000005722045898 297.3417053222656 C 1.000005722045898 304.0346069335938 1.677005767822266 310.7230224609375 3.012205600738525 317.2210998535156 C 4.313355922698975 323.5536193847656 6.254855632781982 329.782470703125 8.782755851745605 335.734619140625 C 11.26495552062988 341.5790100097656 14.33725547790527 347.2160034179688 17.91435623168945 352.4890747070313 C 21.45770645141602 357.7123107910156 25.52705574035645 362.6241149902344 30.00930595397949 367.0879516601563 C 34.49170684814453 371.5518493652344 39.42385482788086 375.6045532226563 44.66890716552734 379.1334228515625 C 49.96400451660156 382.6960144042969 55.62465667724609 385.755859375 61.49360656738281 388.2279968261719 C 67.47090911865234 390.7457580566406 73.72610473632813 392.6794738769531 80.08535766601563 393.9754028320313 C 86.61100769042969 395.3052062988281 93.3277587890625 395.9795227050781 100.0490570068359 395.9795227050781 M 100.0490570068359 396.9795227050781 C 44.79345703125 396.9795227050781 5.712890470022103e-06 352.3708190917969 5.712890470022103e-06 297.3417053222656 C 5.712890470022103e-06 242.3091583251953 44.79345703125 197.7004089355469 100.0490570068359 197.7004089355469 C 103.3878555297852 197.7004089355469 106.6897048950195 197.8634185791016 109.9445571899414 198.1815643310547 C 158.6493072509766 190.9632110595703 195.1389007568359 148.95166015625 195.1389007568359 99.63780975341797 C 195.1389007568359 45.48351287841797 150.9135131835938 0.7876113653182983 96.55355834960938 0.01046135276556015 L 96.55355834960938 1.135253933171043e-05 C 122.9215087890625 0.1951613575220108 148.5088043212891 5.436711311340332 172.6080017089844 15.58866119384766 C 196.3377532958984 25.58731079101563 217.6489105224609 39.8969612121582 235.9489593505859 58.12031173706055 C 254.2489624023438 76.35066223144531 268.6178588867188 97.57466125488281 278.6548461914063 121.2033615112305 C 289.0472412109375 145.6719665527344 294.3167114257813 171.6635131835938 294.3167114257813 198.4531555175781 C 294.3167114257813 225.2463073730469 289.0472412109375 251.2344055175781 278.6548461914063 275.6995239257813 C 268.6178588867188 299.3316650390625 254.2489624023438 320.5557250976563 235.9489593505859 338.7825622558594 C 217.6489105224609 357.0093994140625 196.3377532958984 371.3190612792969 172.6080017089844 381.3141479492188 C 153.7931060791016 389.2404174804688 134.0634002685547 394.1761474609375 113.7636032104492 396.0511169433594 C 109.2784042358398 396.6636047363281 104.7031555175781 396.9795227050781 100.0490570068359 396.9795227050781 Z" stroke="none" fill="#000"/>
              </g>
            </g>
            <g id="Trazado_31" data-name="Trazado 31" transform="translate(225.549 341.191) rotate(180)" stroke-linecap="round">
              <path d="M 31.53101539611816 63.4654426574707 L 31.52332496643066 63.4654426574707 C 27.33442497253418 63.4654426574707 23.27140426635742 62.63375473022461 19.44712448120117 60.99347305297852 C 15.75253486633301 59.4088249206543 12.43454551696777 57.13997268676758 9.585305213928223 54.24995422363281 C 6.735555171966553 51.35943222045898 4.498475074768066 47.99331283569336 2.936175107955933 44.24511337280273 C 1.318625092506409 40.36432266235352 0.4989751279354095 36.24131393432617 0.5000051259994507 31.99060249328613 C 0.5010350942611694 27.7393627166748 1.322955131530762 23.61541366577148 2.942935228347778 19.73330307006836 C 4.507585048675537 15.98381328582764 6.747014999389648 12.61622333526611 9.599024772644043 9.724082946777344 C 12.45056533813477 6.832423210144043 15.77057552337646 4.56199312210083 19.46684455871582 2.975863218307495 C 23.29290580749512 1.334033250808716 27.35717582702637 0.5010332465171814 31.54675483703613 0.5000032186508179 L 31.55444526672363 0.5000032186508179 C 35.74334335327148 0.5000032186508179 39.80636596679688 1.331693291664124 43.63064575195313 2.971973180770874 C 47.32523345947266 4.556623458862305 50.64323425292969 6.825473308563232 53.49247360229492 9.715493202209473 C 56.34221649169922 12.60601329803467 58.57930374145508 15.97213363647461 60.14159393310547 19.7203426361084 C 61.7591438293457 23.60112380981445 62.57879638671875 27.72414398193359 62.57776641845703 31.974853515625 C 62.57673645019531 36.22609329223633 61.75481414794922 40.35004425048828 60.13483428955078 44.23215484619141 C 58.57019424438477 47.98164367675781 56.33076477050781 51.3492317199707 53.47875595092773 54.24137496948242 C 50.62721633911133 57.13302230834961 47.30720520019531 59.4034538269043 43.61093521118164 60.98958206176758 C 39.78487396240234 62.63141250610352 35.72059631347656 63.46441268920898 31.53101539611816 63.4654426574707 Z" stroke="none"/>
              <path d="M 31.54688453674316 1.000003814697266 C 27.42543411254883 1.001014709472656 23.42745590209961 1.820384979248047 19.66401672363281 3.435344696044922 C 16.02749633789063 4.995841979980469 12.76092529296875 7.229793548583984 9.955036163330078 10.07515335083008 C 7.148204803466797 12.92148208618164 4.944236755371094 16.23574447631836 3.404376983642578 19.92586135864258 C 1.809963226318359 23.74668502807617 1.001014709472656 27.80589294433594 1.000003814697266 31.99072265625 C 0.9989967346191406 36.17501068115234 1.805686950683594 40.23326110839844 3.397693634033203 44.05274200439453 C 4.935214996337891 47.74151229858398 7.136814117431641 51.05425262451172 9.941356658935547 53.89892196655273 C 12.74491500854492 56.74260330200195 16.00942611694336 58.97495269775391 19.64421463012695 60.53396224975586 C 23.40586471557617 62.14737319946289 27.4025764465332 62.9654426574707 31.52332496643066 62.9654426574707 L 31.53088569641113 62.9654426574707 C 35.65233612060547 62.96443176269531 39.65031433105469 62.14506149291992 43.41376495361328 60.53010177612305 C 47.05028533935547 58.96961212158203 50.31685638427734 56.73565292358398 53.12273406982422 53.89029312133789 C 55.92957305908203 51.04397201538086 58.1335334777832 47.72971343994141 59.67340469360352 44.03959274291992 C 61.26780700683594 40.21877288818359 62.07675552368164 36.15956115722656 62.07776641845703 31.97473335266113 C 62.07877349853516 27.79044342041016 61.2720832824707 23.73218154907227 59.68007659912109 19.91270446777344 C 58.14255523681641 16.22393417358398 55.94095611572266 12.91120147705078 53.13641357421875 10.06652450561523 C 50.33285522460938 7.222843170166016 47.06834411621094 4.990493774414063 43.43355560302734 3.431484222412109 C 39.67190551757813 1.818073272705078 35.67519378662109 1.000003814697266 31.55444526672363 1.000003814697266 L 31.54688453674316 1.000003814697266 M 31.55444526672363 3.814697265625e-06 C 48.96996307373047 3.814697265625e-06 63.0820426940918 14.31356048583984 63.07776641845703 31.97497367858887 C 63.07349395751953 49.63855361938477 48.9495849609375 63.96116256713867 31.53113555908203 63.9654426574707 C 31.52900886535645 63.9654426574707 31.52545166015625 63.9654426574707 31.52332496643066 63.9654426574707 C 14.10780715942383 63.9654426574707 -0.0042724609375 49.65188598632813 3.814697265625e-06 31.99048233032227 C 0.004283905029296875 14.326904296875 14.12819671630859 0.004283905029296875 31.54663467407227 3.814697265625e-06 C 31.54876136779785 3.814697265625e-06 31.55231857299805 3.814697265625e-06 31.55444526672363 3.814697265625e-06 Z" stroke="none" fill="#707070"/>
            </g>
          </g>
        </g>
        <g id="Sustracción_44" data-name="Sustracción 44" transform="translate(0 0)" fill="#5c1501" stroke-linecap="round">
          <path d="M 549.3655395507813 541.6217651367188 L 0.4999736547470093 541.6217651367188 L 0.4999736547470093 0.5000254511833191 L 549.3656616210938 0.5000254511833191 L 549.3655395507813 541.6217651367188 Z M 25.2721061706543 284.8390808105469 C 25.78356742858887 314.6455688476563 23.30757331848145 344.515380859375 17.91290283203125 373.6151733398438 L 17.89654541015625 373.7035217285156 L 17.91197395324707 373.7920837402344 L 18.06190299987793 374.6529541015625 L 18.09161567687988 374.8236694335938 L 18.22061729431152 374.9393920898438 C 35.3012580871582 390.2611083984375 51.3138313293457 407.1123046875 65.81354522705078 425.0248107910156 C 66.41911315917969 425.7693176269531 67.01361846923828 426.5123901367188 67.70204162597656 427.3727416992188 L 67.71697235107422 427.3913879394531 L 68.12247467041016 427.8977966308594 C 90.4661865234375 455.9396667480469 109.3471908569336 486.7459411621094 124.2403335571289 519.4599609375 L 124.3143310546875 519.6224975585938 L 124.4745483398438 519.7013549804688 C 125.3761901855469 520.1453247070313 126.0434036254883 520.4771118164063 126.5827560424805 520.7589721679688 L 126.7806854248047 520.8623657226563 L 126.9898300170898 520.7839965820313 C 172.6677551269531 503.6607360839844 220.4854736328125 494.5408020019531 269.1145324707031 493.6775207519531 L 269.1183166503906 493.6774597167969 L 269.1220397949219 493.6773071289063 L 269.2213134765625 493.6740417480469 C 271.7014465332031 493.630859375 274.2115173339844 493.6090393066406 276.6820373535156 493.6090393066406 C 323.4938354492188 493.6090393066406 369.8031311035156 501.304443359375 414.3236083984375 516.481689453125 L 414.44140625 516.5217895507813 L 414.5642700195313 516.5020141601563 L 414.6305541992188 516.4913940429688 L 414.8796997070313 516.4513549804688 L 414.9954833984375 516.2271728515625 C 440.1541137695313 467.5148010253906 473.5406188964844 424.5770874023438 514.2275390625 388.6066589355469 L 514.4642333984375 388.3978881835938 L 514.5130615234375 388.3555908203125 L 514.8025512695313 388.1043701171875 L 514.806640625 388.1007995605469 L 514.8106689453125 388.09716796875 L 514.9588623046875 387.9628295898438 L 515.7867431640625 387.2387390136719 L 516.003662109375 387.0457458496094 L 516.01025390625 387.0404663085938 L 516.0199584960938 387.0327453613281 L 516.0293579101563 387.0244445800781 L 516.4196166992188 386.6793823242188 L 516.6848754882813 386.4486694335938 L 516.8934326171875 386.2678833007813 L 517.0176391601563 386.1607971191406 C 524.4229125976563 379.7287292480469 532.072021484375 373.5190124511719 539.7540283203125 367.702880859375 L 540.0172729492188 367.5036010742188 L 539.9373779296875 367.1833190917969 C 531.7789916992188 334.459228515625 527.3423461914063 300.762939453125 526.750732421875 267.0303039550781 L 526.7506713867188 267.0272521972656 L 526.7506103515625 267.024169921875 L 526.7472534179688 266.9120178222656 C 526.1943969726563 234.8357391357422 529.1165161132813 202.6535339355469 535.4326782226563 171.2638092041016 L 535.46484375 171.1043090820313 L 535.3969116210938 170.9564514160156 C 535.261474609375 170.6616668701172 535.1295166015625 170.3598175048828 535.0018920898438 170.0679473876953 L 534.9475708007813 169.9435272216797 L 534.8358764648438 169.8595275878906 C 522.5462036132813 160.9303894042969 510.5881042480469 151.2487335205078 499.2938232421875 141.0834503173828 L 499.0389099121094 140.8553619384766 L 499.0321044921875 140.8485260009766 L 499.0233459472656 140.8396759033203 L 499.0141906738281 140.8313140869141 L 498.6552734375 140.5037384033203 C 497.9790344238281 139.896240234375 497.2611083984375 139.2500305175781 496.5375366210938 138.5847473144531 C 462.7624206542969 107.6481704711914 434.1467895507813 71.69007873535156 411.4829406738281 31.70780563354492 L 411.4278259277344 31.09238243103027 L 411.2604064941406 31.07145309448242 C 411.1906127929688 31.06331062316895 411.1329650878906 31.05559730529785 411.0805358886719 31.04852485656738 L 411.07275390625 31.04752540588379 L 410.97607421875 31.03477478027344 L 410.8802490234375 31.01873970031738 L 409.8569030761719 30.84745407104492 L 410.1826171875 31.43401908874512 C 372.4351196289063 42.93782043457031 333.2340087890625 49.12128067016602 293.65625 49.81388092041016 C 291.1736755371094 49.85723876953125 288.6548156738281 49.87916946411133 286.1697692871094 49.87916946411133 C 238.0311126708984 49.87995529174805 190.5023345947266 41.7581672668457 144.9036102294922 25.73945426940918 L 144.5016174316406 25.59816741943359 L 144.2984008789063 25.97274017333984 C 128.4382629394531 55.20866775512695 109.2081909179688 82.67230987548828 87.142333984375 107.6008148193359 C 86.11332702636719 108.7620239257813 85.34811401367188 109.6172409057617 84.65254211425781 110.393669128418 C 62.37897491455078 135.1313171386719 37.33654403686523 157.2480926513672 10.22168827056885 176.1287384033203 L 9.933116912841797 176.3297424316406 L 10.02461624145508 176.6692352294922 C 19.49918746948242 211.8141632080078 24.62797355651855 248.1678771972656 25.26861572265625 284.7206726074219 L 25.2686882019043 284.7237548828125 L 25.26875877380371 284.726806640625 L 25.2721061706543 284.8390808105469 Z" stroke="none"/>
          <path d="M 548.8655395507813 541.1217651367188 L 548.8656616210938 1.000025391578674 L 0.9999736547470093 1.000025391578674 L 0.9999736547470093 541.1217651367188 L 548.8655395507813 541.1217651367188 M 24.77223777770996 284.8511352539063 L 24.76897430419922 284.7416687011719 L 24.76883125305176 284.7355346679688 L 24.7686882019043 284.7293701171875 C 24.12875938415527 248.2176666259766 19.00576019287109 211.9047393798828 9.541902542114258 176.7993774414063 L 9.358830451965332 176.1203155517578 L 9.93597412109375 175.7184600830078 C 37.01940155029297 156.8596038818359 62.03297424316406 134.768310546875 84.28011322021484 110.0600280761719 C 84.97525787353516 109.2840957641602 85.73997497558594 108.4294509887695 86.76797485351563 107.2694549560547 C 108.8086853027344 82.36930847167969 128.0168304443359 54.93695449829102 143.8589019775391 25.73431205749512 L 144.2652587890625 24.98523902893066 L 145.0693359375 25.26766777038574 C 190.6146240234375 41.26766967773438 238.0876922607422 49.37995529174805 286.1697692871094 49.37916946411133 C 288.6519775390625 49.37916946411133 291.1678161621094 49.35723876953125 293.6474609375 49.3139533996582 C 332.9725952148438 48.62581253051758 371.9236145019531 42.51078033447266 409.4450073242188 31.1356143951416 L 408.9161071777344 30.18309593200684 L 410.9628295898438 30.52559661865234 L 411.0504150390625 30.54025650024414 L 411.1391296386719 30.55195426940918 L 411.1469116210938 30.55295372009277 C 411.1967468261719 30.55966758728027 411.2516174316406 30.56702613830566 411.3138427734375 30.57431030273438 L 411.318115234375 30.5748119354248 L 411.3223876953125 30.5753116607666 L 411.4898376464844 30.59623908996582 L 411.5587463378906 31.36616516113281 L 411.7899169921875 31.23531150817871 C 434.4483337402344 71.26302337646484 463.0748901367188 107.2563095092773 496.8759765625 138.2166748046875 C 497.5976257324219 138.8801727294922 498.3142700195313 139.5252380371094 498.9864807128906 140.1290893554688 L 498.9894104003906 140.1317443847656 L 498.9922485351563 140.1343841552734 L 499.3511962890625 140.4619598388672 L 499.36962890625 140.4787445068359 L 499.3833618164063 140.4925994873047 L 499.6283264160156 140.7118072509766 C 510.9096984863281 150.8654479980469 522.8541259765625 160.5361022949219 535.1297607421875 169.4550323486328 L 535.351318359375 169.6188049316406 L 535.4600219726563 169.86767578125 C 535.5867309570313 170.1574554443359 535.7177734375 170.4571685791016 535.8512573242188 170.7476654052734 L 535.9871215820313 171.0433807373047 L 535.9229125976563 171.3624572753906 C 529.61376953125 202.7169036865234 526.69482421875 234.8594970703125 527.2471313476563 266.89990234375 L 527.2504272460938 267.0093078613281 L 527.2505493164063 267.0154418945313 L 527.2506713867188 267.0216064453125 C 527.8416137695313 300.7163696289063 532.2732543945313 334.3749389648438 540.4225463867188 367.0623168945313 L 540.582275390625 367.7029418945313 L 540.055908203125 368.1015319824219 C 532.3827514648438 373.9109497070313 524.742431640625 380.1135864257813 517.343994140625 386.5396118164063 L 517.220947265625 386.6455993652344 L 517.0130615234375 386.8258972167969 L 516.7454223632813 387.0586547851563 L 516.3604736328125 387.3990173339844 L 516.3418579101563 387.41552734375 L 516.3258666992188 387.4283142089844 L 516.12255859375 387.6093139648438 L 516.1192626953125 387.6122436523438 L 516.115966796875 387.6150817871094 L 515.2890014648438 388.33837890625 L 515.146484375 388.4675903320313 L 515.1384887695313 388.4748840332031 L 515.1302490234375 388.4820251464844 L 514.8403930664063 388.7336120605469 L 514.7881469726563 388.7788696289063 L 514.7880859375 388.7788696289063 L 514.5587768554688 388.9813232421875 C 473.9182739257813 424.9105224609375 440.56982421875 467.7994689941406 415.4397583007813 516.4566040039063 L 415.2081298828125 516.9050903320313 L 414.7097473144531 516.985107421875 L 414.6434631347656 516.9957275390625 L 414.3978271484375 517.03515625 L 414.1623229980469 516.9548950195313 C 369.6938171386719 501.7954406738281 323.4388427734375 494.1090393066406 276.6820373535156 494.1090393066406 C 274.2152709960938 494.1090393066406 271.7088317871094 494.130859375 269.2325134277344 494.1739501953125 L 269.1384887695313 494.1770324707031 L 269.1309814453125 494.1773071289063 L 269.1234130859375 494.1774597167969 C 220.5514068603516 495.0397338867188 172.7898254394531 504.1489562988281 127.1653289794922 521.252197265625 L 126.7471160888672 521.408935546875 L 126.351188659668 521.2020874023438 C 125.8162612915039 520.9225463867188 125.151969909668 520.5922241210938 124.2536849975586 520.1499633789063 L 123.9332580566406 519.9921875 L 123.7852630615234 519.6671752929688 C 108.9091186523438 486.9903869628906 90.04961395263672 456.21923828125 67.73211669921875 428.2102966308594 L 67.32661437988281 427.7037963867188 L 67.31161499023438 427.6850891113281 C 66.6239013671875 426.8255920410156 66.02989959716797 426.083251953125 65.42490386962891 425.3393859863281 C 50.94182968139648 407.4474487304688 34.94768905639648 390.6156616210938 17.88675880432129 375.3115844726563 L 17.62875938415527 375.0801696777344 L 17.5693302154541 374.7387390136719 L 17.41940307617188 373.8778686523438 L 17.38854598999023 373.7008056640625 L 17.42133140563965 373.5240173339844 C 22.8099308013916 344.4570007324219 25.28312683105469 314.6242370605469 24.77223777770996 284.8511352539063 M 549.8656616210938 542.1217651367188 L 549.8655395507813 542.1217651367188 L 549.8656616210938 542.1217651367188 Z M 549.8656616210938 542.1217651367188 L -2.633231088111643e-05 542.1217651367188 L -2.633231088111643e-05 2.542550282669254e-05 L 549.8656616210938 2.542550282669254e-05 L 549.8655395507813 542.1217651367188 Z M 144.7378997802734 26.21116828918457 C 128.859619140625 55.48052597045898 109.6076202392578 82.97545623779297 87.51676177978516 107.932243347168 C 86.48519134521484 109.0963134765625 85.71497344970703 109.9570999145508 85.02497100830078 110.7273101806641 C 62.72504425048828 135.4941711425781 37.65375900268555 157.6364593505859 10.50740242004395 176.5390930175781 C 19.99318885803223 211.7257385253906 25.12726020812988 248.1217346191406 25.76854515075684 284.7118835449219 L 25.77197456359863 284.8268737792969 C 26.28440284729004 314.6686706542969 23.80561637878418 344.572021484375 18.40454483032227 373.706298828125 L 18.55447387695313 374.5671691894531 C 35.65540313720703 389.9071044921875 51.68683242797852 406.7783813476563 66.20218658447266 424.7102355957031 C 66.81269073486328 425.4608154296875 67.42311859130859 426.2238159179688 68.10739898681641 427.0790405273438 L 68.51275634765625 427.5852966308594 C 90.88275909423828 455.66015625 109.7853317260742 486.5015869140625 124.6954040527344 519.2528076171875 C 125.6360473632813 519.7159423828125 126.2851867675781 520.039306640625 126.8143310546875 520.3157958984375 C 172.5461120605469 503.1723937988281 220.4208984375 494.0418701171875 269.1056823730469 493.1775817871094 L 269.2102661132813 493.1741638183594 C 271.6933288574219 493.1309509277344 274.2071838378906 493.1090393066406 276.6820373535156 493.1090393066406 C 323.5489807128906 493.1090393066406 369.9125366210938 500.8135375976563 414.4849853515625 516.0083618164063 L 414.55126953125 515.9977416992188 C 439.7385559082031 467.2297973632813 473.1640319824219 424.2425842285156 513.8964233398438 388.2320861816406 L 514.1334228515625 388.02294921875 L 514.1856689453125 387.9776611328125 L 514.474853515625 387.7267456054688 L 514.624755859375 387.5908203125 L 515.4576416015625 386.8623962402344 L 515.6806640625 386.663818359375 L 515.6981201171875 386.6498718261719 L 516.08837890625 386.3048095703125 L 516.3567504882813 386.0713806152344 L 516.5658569335938 385.8901062011719 L 516.6912841796875 385.7820129394531 C 524.1033325195313 379.3440856933594 531.76123046875 373.1272277832031 539.4522705078125 367.3042297363281 C 531.2841796875 334.5414428710938 526.843017578125 300.8060302734375 526.2508544921875 267.0390930175781 L 526.2473754882813 266.9241638183594 C 525.6934204101563 234.809814453125 528.618896484375 202.5918884277344 534.9425659179688 171.1651611328125 C 534.8045654296875 170.8648071289063 534.6732788085938 170.5643768310547 534.5419921875 170.2640228271484 C 522.2428588867188 161.3280181884766 510.2712707519531 151.6362457275391 498.9593200683594 141.4550933837891 L 498.6944885253906 141.2180938720703 L 498.6771240234375 141.2005920410156 L 498.3181762695313 140.8730316162109 C 497.6429748535156 140.2664489746094 496.9232482910156 139.6185913085938 496.1991271972656 138.9528045654297 C 462.3219604492188 107.922737121582 433.6298217773438 71.84709930419922 410.919677734375 31.72795486450195 L 411.3658447265625 31.58852577209473 L 411.1983947753906 31.56759643554688 C 411.12646484375 31.55924034118652 411.0634765625 31.55073928833008 411.0064086914063 31.5430965423584 L 410.90234375 31.52938270568848 L 410.7977600097656 31.51188278198242 L 410.9197692871094 31.73159599304199 C 372.9395446777344 43.3668098449707 333.4901123046875 49.61688232421875 293.6649780273438 50.31381225585938 C 291.1801147460938 50.35717010498047 288.6584167480469 50.37916946411133 286.1697692871094 50.37916946411133 C 237.9745483398438 50.37995529174805 190.3899688720703 42.2486686706543 144.7378997802734 26.21116828918457 Z" stroke="none" fill="#000"/>
        </g>
      </g>
      <g transform="matrix(1, 0, 0, 1, -298.1, -223.46)" filter="url(#GOA)">
        <text id="GOA-2" data-name="GOA" transform="translate(298.1 661.09)" fill="#03aa1f" stroke="#4d4d4d" stroke-linecap="round" stroke-width="4" font-size="195" font-family="EngraversMT, Engravers MT"><tspan x="0" y="183">GOA</tspan></text>
      </g>
    </g>
  </g>
</svg>
