<svg xmlns="http://www.w3.org/2000/svg" xmlns:xlink="http://www.w3.org/1999/xlink" width="460" height="443" viewBox="0 0 460 443">
  <defs>
    <radialGradient id="radial-gradient" cx="0.5" cy="0.5" r="0.947" gradientTransform="matrix(1, 0, 0, 1.079, 0, -0.039)" gradientUnits="objectBoundingBox">
      <stop offset="0" stop-color="#7b3209"/>
      <stop offset="0.176" stop-color="#984f11"/>
      <stop offset="0.343" stop-color="#8a3901"/>
      <stop offset="0.512" stop-color="#7e3304"/>
      <stop offset="0.657" stop-color="#7b2504"/>
      <stop offset="1" stop-color="#d26b32"/>
      <stop offset="1" stop-color="#e95707"/>
    </radialGradient>
    <filter id="GOA" x="156.5" y="252.5" width="151" height="77" filterUnits="userSpaceOnUse">
      <feOffset dx="4" dy="5" input="SourceAlpha"/>
      <feGaussianBlur stdDeviation="1" result="blur"/>
      <feFlood flood-color="#912d2d" flood-opacity="0.161"/>
      <feComposite operator="in" in2="blur"/>
      <feComposite in="SourceGraphic"/>
    </filter>
  </defs>
  <g id="Grupo_53" data-name="Grupo 53" transform="translate(-1414 -1121)">
  <filter id="blurMe">
    	<feGaussianBlur in="SourceGraphic" stdDeviation="38" result="blur"/>
	<feOffset dx="4" dy="5" input="SourceAlpha"/>
	<feFlood flood-color="#953500" flood-opacity="0.9"/>
 	<feComposite operator="in" in2="blur"/>
      	
  </filter>  	
    <rect id="Rectángulo_26" data-name="Rectángulo 26" width="172" height="162" transform="translate(1555 1250)" fill="#953500" filter="url(#blurMe)"/>
    <g id="Grupo_48" data-name="Grupo 48" transform="translate(239 -562)">
      <g id="Grupo_47" data-name="Grupo 47">
        <g id="Grupo_41" data-name="Grupo 41" transform="translate(1332 1824)">
          <g id="logoooo">
            <g id="Grupo_38" data-name="Grupo 38" style="isolation: isolate">
              <g id="Grupo_40" data-name="Grupo 40" transform="translate(0)">
                <g id="Grupo_37" data-name="Grupo 37" transform="translate(0)">
                  <g id="Sustracción_28" data-name="Sustracción 28" transform="matrix(1, -0.017, 0.017, 1, 0.931, 6.392)" stroke-linecap="round" fill="url(#radial-gradient)">
                    <path d="M 103.0700836181641 125.9580841064453 C 91.22861480712891 121.9757537841797 78.91815185546875 119.9580078125 66.44069671630859 119.9580078125 L 66.41279602050781 119.9580078125 C 54.14980316162109 119.9614639282227 42.05307006835938 121.9101715087891 30.41422653198242 125.7538833618164 C 26.70674705505371 117.7100372314453 22.0970344543457 110.089599609375 16.68941688537598 103.0688629150391 C 16.5168571472168 102.8446426391602 16.35279846191406 102.6342010498047 16.18965721130371 102.4256439208984 C 12.61384010314941 97.84877777099609 8.681221961975098 93.51815032958984 4.484322547912598 89.53446960449219 C 5.867122650146484 82.22499084472656 6.568581581115723 74.74690246582031 6.570297718048096 67.28200531005859 L 6.570297718048096 67.25430297851563 C 6.568581104278564 58.05768585205078 5.509900093078613 48.88957977294922 3.421594619750977 39.97054290771484 C 10.22268581390381 35.24627304077148 16.5390510559082 29.77372550964355 22.21917724609375 23.681884765625 C 22.45123291015625 23.43325614929199 22.6306095123291 23.23933792114258 22.7822322845459 23.07320594787598 C 28.23691940307617 17.14166450500488 33.08188247680664 10.6479959487915 37.20931625366211 3.739905834197998 C 49.36012649536133 7.953620910644531 62.01342010498047 10.08840465545654 74.85929870605469 10.08840465545654 C 84.69993591308594 10.08840465545654 94.49118804931641 8.824746131896973 104.0008850097656 6.329733848571777 C 109.7540664672852 16.38253402709961 116.9098587036133 25.48539733886719 125.2969207763672 33.41610336303711 L 125.2999801635742 33.41900253295898 L 125.3030548095703 33.42188262939453 C 125.5009155273438 33.60792541503906 125.6941986083984 33.78942489624023 125.892936706543 33.97548294067383 L 125.8951568603516 33.97754287719727 L 125.8973770141602 33.9796257019043 C 128.5588989257813 36.46091842651367 131.3605194091797 38.83871841430664 134.2451934814453 41.06541442871094 C 132.6562347412109 48.88723754882813 131.8505096435547 56.8944091796875 131.8488006591797 64.89566802978516 L 131.8488006591797 64.92240142822266 C 131.8496551513672 73.41960144042969 132.7520599365234 81.89515686035156 134.5326843261719 90.14466094970703 C 132.8873596191406 91.38380432128906 131.2696380615234 92.67057800292969 129.7069091796875 93.98355102539063 C 129.4989776611328 94.15745544433594 129.2910308837891 94.33319854736328 129.0840301513672 94.50892639160156 C 118.6309814453125 103.4023895263672 109.8893737792969 113.9725036621094 103.0700836181641 125.9580841064453 Z" stroke="none"/>
                    <path d="M 101.6954574584961 122.3576507568359 C 108.5049514770508 110.9306259155273 117.1101837158203 100.757926940918 127.7751846313477 91.68825531005859 C 128.8965911865234 90.74603271484375 130.0455322265625 89.81700897216797 131.2122650146484 88.90879821777344 C 129.6438446044922 81.04265594482422 128.8496246337891 72.9881591796875 128.8488006591797 64.89501190185547 C 128.8504333496094 57.31401443481445 129.5562286376953 49.72771453857422 130.9493865966797 42.29094696044922 C 128.4646759033203 40.30651092529297 125.956672668457 38.13531494140625 123.2357330322266 35.59589385986328 C 115.1740493774414 27.97284126281738 108.2347869873047 19.30734443664551 102.5618209838867 9.786243438720703 C 93.49652099609375 11.97900104522705 84.19972229003906 13.08841896057129 74.85930633544922 13.08841896057129 C 62.48451995849609 13.08841896057129 50.28350448608398 11.15767383575439 38.52103042602539 7.344128131866455 C 34.55610656738281 13.67923545837402 29.93005180358887 19.7324104309082 24.41332626342773 25.72777557373047 C 19.05101203918457 31.47876167297363 13.13587951660156 36.69155120849609 6.788166046142578 41.26366424560547 C 8.633739471435547 49.78210830688477 9.568653106689453 58.50940704345703 9.570302963256836 67.28267669677734 C 9.568652153015137 74.38945770263672 8.948225975036621 81.50822448730469 7.724105358123779 88.48955535888672 C 11.60194301605225 92.27621459960938 15.30888557434082 96.42606353759766 19.06613540649414 101.2382278442383 C 24.07068252563477 107.7356185913086 28.4090747833252 114.7347640991211 32.00204849243164 122.1013336181641 C 43.16432952880859 118.6897506713867 54.71832275390625 116.9613037109375 66.44070434570313 116.9580154418945 C 78.42853546142578 116.9580154418945 90.26367950439453 118.7724304199219 101.6954574584961 122.3576507568359 M 104.4197998046875 129.6054229736328 L 104.4188995361328 129.6045074462891 C 92.18187713623047 125.1942977905273 79.40403747558594 122.9580154418945 66.44070434570313 122.9580154418945 L 66.41280364990234 122.9580154418945 C 53.63637542724609 122.9616088867188 41.04368209838867 125.133918762207 28.98449325561523 129.4146118164063 L 28.8783016204834 129.3588256835938 L 28.87380218505859 129.3561096191406 C 28.81620788574219 129.3255157470703 28.7577075958252 129.294921875 28.70008850097656 129.2651977539063 C 24.92677879333496 120.5930404663086 20.08632659912109 112.395393371582 14.31270694732666 104.8995132446289 C 14.1443977355957 104.6808013916016 13.98511219024658 104.4765167236328 13.8267068862915 104.2740173339844 C 10.01082611083984 99.38984680175781 5.779421806335449 94.7947998046875 1.250112056732178 90.61651611328125 L 1.241088271141052 90.55801391601563 L 1.234802484512329 90.51480102539063 C 2.782731056213379 82.90122985839844 3.568492889404297 75.08446502685547 3.570302486419678 67.28129577636719 L 3.570302486419678 67.25430297851563 C 3.568492889404297 57.64358520507813 2.382707357406616 48.06436920166016 0.04589776694774628 38.78279876708984 C 0.05513586103916168 38.74691772460938 0.06170729175209999 38.71675109863281 0.06658824533224106 38.68741989135742 L 0.06930252909660339 38.67570495605469 L 0.0837072879076004 38.61541748046875 C 7.330636024475098 33.76763153076172 14.03970718383789 28.05513191223145 20.02499389648438 21.63601303100586 C 20.25223159790039 21.39253807067871 20.42525482177734 21.20551300048828 20.56949234008789 21.04741859436035 C 26.44320678710938 14.66091823577881 31.59208869934082 7.604966163635254 35.87308883666992 0.07560904324054718 L 35.83437347412109 0.06120428442955017 L 35.82720565795898 0.05851380899548531 L 35.83994674682617 0.05760904774069786 L 35.88570785522461 0.05401380732655525 L 35.87303924560547 0.07299000024795532 C 48.41149139404297 4.727561473846436 61.52851867675781 7.088418483734131 74.85930633544922 7.088418483734131 C 85.21525573730469 7.088418483734131 95.51544189453125 5.651299476623535 105.4737091064453 2.817013740539551 L 105.4628753662109 2.796252012252808 L 105.4520874023438 2.775609016418457 L 105.443115234375 2.759418487548828 L 105.4394912719727 2.754013776779175 L 105.4278030395508 2.731513738632202 L 105.4125137329102 2.703608989715576 L 105.3989944458008 2.678418636322021 L 105.3837051391602 2.651418685913086 L 105.3792037963867 2.641513824462891 C 105.5063705444336 2.681775808334351 105.6385879516602 2.71251392364502 105.7733993530273 2.731513738632202 L 105.7193756103516 2.74591851234436 L 105.5385131835938 2.79810905456543 L 105.4926147460938 2.811609029769897 L 105.4737091064453 2.817013740539551 C 111.2627563476563 13.41675186157227 118.6255416870117 22.9788703918457 127.3581085205078 31.23629951477051 C 127.554328918457 31.42079925537109 127.7459945678711 31.60079956054688 127.943115234375 31.78529930114746 C 130.9833526611328 34.61968231201172 134.2112579345703 37.31553649902344 137.537109375 39.79801559448242 L 137.5659027099609 39.86191940307617 C 135.7647857666016 48.05686950683594 134.8506164550781 56.47944259643555 134.8488006591797 64.89630126953125 L 134.8488006591797 64.92241668701172 C 134.8497009277344 73.80410766601563 135.8607482910156 82.6611328125 137.8538970947266 91.24742126464844 C 137.8087005615234 91.33586883544922 137.77197265625 91.41206359863281 137.7270355224609 91.5111083984375 C 135.6456909179688 93.02913665771484 133.5961151123047 94.63417816162109 131.6349029541016 96.28201293945313 C 131.4315185546875 96.45211029052734 131.2281188964844 96.62401580810547 131.0256195068359 96.79592132568359 C 120.2213745117188 105.9881591796875 111.2910919189453 117.0228958129883 104.4828033447266 129.5937042236328 L 104.4494934082031 129.6000213623047 L 104.4188995361328 129.6036071777344 L 104.4197998046875 129.6054229736328 Z" stroke="none" fill="#2a1303"/>
                  </g>
                  <g id="Grupo_7" data-name="Grupo 7" transform="matrix(1, -0.017, 0.017, 1, 20.035, 19.578)">
                    <g id="Grupo_6" data-name="Grupo 6" transform="translate(0 0)">
                      <g id="Grupo_5" data-name="Grupo 5" transform="translate(0 0)">
                        <g id="Trazado_29" data-name="Trazado 29" transform="translate(24.888 0.449)" stroke-linecap="round">
                          <path d="M 25.29331588745117 50.77827835083008 L 25.28717613220215 50.77827835083008 C 21.94448661804199 50.77827835083008 18.7022762298584 50.11462020874023 15.65063667297363 48.80572891235352 C 12.70233631134033 47.54116821289063 10.05450630187988 45.73057174682617 7.780716419219971 43.42422866821289 C 5.506426334381104 41.11738967895508 3.721076488494873 38.43098831176758 2.474256277084351 35.43965911865234 C 1.183306336402893 32.34246826171875 0.5291664004325867 29.05188941955566 0.5299863815307617 25.65933036804199 C 0.5308063626289368 22.26634979248047 1.186776399612427 18.97500991821289 2.479656457901001 15.87675952911377 C 3.72835636138916 12.88438034057617 5.515586376190186 10.19680023193359 7.791706562042236 7.888659954071045 C 10.06734657287598 5.580999851226807 12.71678638458252 3.769129991531372 15.66644668579102 2.503379821777344 C 18.71952629089355 1.193249821662903 21.96273612976074 0.5285398960113525 25.30597686767578 0.5277198553085327 L 25.3121166229248 0.5277198553085327 C 28.65480613708496 0.5277198553085327 31.89701652526855 1.191379904747009 34.94865798950195 2.500269889831543 C 37.89695739746094 3.764829874038696 40.54478454589844 5.575429916381836 42.81857681274414 7.88176965713501 C 45.09286499023438 10.1886100769043 46.87821578979492 12.87500953674316 48.12503814697266 15.86633968353271 C 49.41598510742188 18.96352958679199 50.07012557983398 22.25411033630371 50.06930541992188 25.64666938781738 C 50.06848526000977 29.03964996337891 49.41251754760742 32.33098983764648 48.11963653564453 35.42924118041992 C 46.87093734741211 38.4216194152832 45.08370590209961 41.10919952392578 42.80758666992188 43.41733932495117 C 40.53194808959961 45.72499847412109 37.88250732421875 47.53686904907227 34.93284606933594 48.80261993408203 C 31.8797664642334 50.11275100708008 28.63655662536621 50.77745819091797 25.29331588745117 50.77827835083008 Z" stroke="none"/>
                          <path d="M 25.30610656738281 1.027721405029297 C 22.03099632263184 1.028518676757813 18.85408592224121 1.679599761962891 15.86361694335938 2.962860107421875 C 12.97370529174805 4.202968597412109 10.37770462036133 5.978370666503906 8.147716522216797 8.239730834960938 C 5.916774749755859 10.50205993652344 4.165016174316406 13.13631057739258 2.941085815429688 16.06932067871094 C 1.673774719238281 19.10628128051758 1.030796051025391 22.33287048339844 1.029987335205078 25.65945053100586 C 1.0291748046875 28.98559951782227 1.670375823974609 32.21141052246094 2.935768127441406 35.24729919433594 C 4.157817840576172 38.17919921875 5.907688140869141 40.81221008300781 8.136764526367188 43.07320022583008 C 10.36488723754883 45.33319854736328 12.95922470092773 47.1072998046875 15.84772491455078 48.34621047973633 C 18.83673667907715 49.62823867797852 22.01262664794922 50.27827835083008 25.28717613220215 50.27827835083008 L 25.29318618774414 50.27827835083008 C 28.56829643249512 50.27748107910156 31.74520683288574 49.62639999389648 34.73567581176758 48.3431396484375 C 37.62558746337891 47.10303115844727 40.22158813476563 45.32762908935547 42.45157623291016 43.06626892089844 C 44.68251800537109 40.80393981933594 46.43427658081055 38.1696891784668 47.65820693969727 35.23667907714844 C 48.92551803588867 32.19972229003906 49.56849670410156 28.97312927246094 49.56930541992188 25.64654922485352 C 49.57011795043945 22.32040023803711 48.92891693115234 19.09458923339844 47.66352462768555 16.05870056152344 C 46.44147491455078 13.12680053710938 44.69160461425781 10.49378967285156 42.46251678466797 8.232799530029297 C 40.23440551757813 5.972801208496094 37.64006805419922 4.198699951171875 34.75156402587891 2.959789276123047 C 31.76254653930664 1.677761077880859 28.58665657043457 1.027721405029297 25.3121166229248 1.027721405029297 L 25.30610656738281 1.027721405029297 M 25.31211471557617 0.02771759033203125 C 39.26580429077148 0.02771759033203125 50.57273483276367 11.49606704711914 50.56930541992188 25.64678955078125 C 50.56587600708008 39.79924011230469 39.24948501586914 51.27484893798828 25.29343605041504 51.27827835083008 C 25.29173278808594 51.27828216552734 25.28888130187988 51.27828216552734 25.28717803955078 51.27828216552734 C 11.33347702026367 51.27828216552734 0.02655792236328125 39.80993270874023 0.02998733520507813 25.65921020507813 C 0.033416748046875 11.50675964355469 11.34980773925781 0.03115081787109375 25.30585670471191 0.02772140502929688 C 25.30755996704102 0.02771759033203125 25.31041145324707 0.02771759033203125 25.31211471557617 0.02771759033203125 Z" stroke="none" fill="#000"/>
                        </g>
                        <g id="Trazado_30" data-name="Trazado 30" transform="translate(58.342 33.947) rotate(180)" fill="#fff" stroke-linecap="round">
                          <path d="M 8.152313232421875 16.02771186828613 L 8.150423049926758 16.02771186828613 C 6.110123157501221 16.02771186828613 4.19191312789917 15.22177124023438 2.749133348464966 13.75835132598877 C 1.304493308067322 12.29303073883057 0.5091632604598999 10.34405136108398 0.5096632242202759 8.270441055297852 C 0.5107032656669617 3.99177098274231 3.941083192825317 0.509971022605896 8.156553268432617 0.508931040763855 C 10.19874286651611 0.508931040763855 12.11695289611816 1.314871072769165 13.55973339080811 2.778290987014771 C 15.00437355041504 4.243610858917236 15.79970359802246 6.192591190338135 15.79920291900635 8.266201019287109 C 15.79816341400146 12.54487133026123 12.36778354644775 16.02667045593262 8.152313232421875 16.02771186828613 Z" stroke="none"/>
                          <path d="M 8.156682968139648 1.008931159973145 C 4.21677303314209 1.00990104675293 1.01063346862793 4.267460823059082 1.009663581848145 8.270561218261719 C 1.009193420410156 10.21191120147705 1.753403663635254 12.03618049621582 3.105193138122559 13.40732097625732 C 4.453252792358398 14.77467155456543 6.245022773742676 15.52771091461182 8.152183532714844 15.52771091461182 C 12.0920934677124 15.52674102783203 15.29823303222656 12.26918125152588 15.29920291900635 8.266080856323242 C 15.29967308044434 6.32473087310791 14.55546283721924 4.500460624694824 13.20367336273193 3.129330635070801 C 11.85561370849609 1.761971473693848 10.0638427734375 1.008931159973145 8.158443450927734 1.008931159973145 L 8.156682968139648 1.008931159973145 M 8.158440589904785 0.008930206298828125 C 12.65591335296631 0.008930206298828125 16.30030250549316 3.705348014831543 16.29920387268066 8.266321182250977 C 16.29809379577637 12.82785129547119 12.65066337585449 16.52660179138184 8.152433395385742 16.52771186828613 C 8.151884078979492 16.52771186828613 8.150975227355957 16.52771186828613 8.150425910949707 16.52771186828613 C 3.652953147888184 16.52771186828613 0.008563995361328125 12.8313045501709 0.009662628173828125 8.270320892333984 C 0.010772705078125 3.70879077911377 3.658203125 0.010040283203125 8.15643310546875 0.008930206298828125 C 8.156982421875 0.008930206298828125 8.157891273498535 0.008930206298828125 8.158440589904785 0.008930206298828125 Z" stroke="none" fill="#fff"/>
                        </g>
                        <g id="Sustracción_1" data-name="Sustracción 1" transform="translate(0 0.422)" stroke-linecap="round">
                          <path d="M 40.61741256713867 100.6720886230469 C 37.30866241455078 100.0041732788086 34.07607650756836 98.99348449707031 30.94442939758301 97.64524078369141 C 25.02180099487305 95.09387969970703 19.70338821411133 91.44828033447266 15.13702869415283 86.80972290039063 C 10.57037544250488 82.17093658447266 6.98486852645874 76.76985168457031 4.480068683624268 70.75653839111328 C 1.886855244636536 64.53285217285156 0.5720018744468689 57.92104339599609 0.5720018744468689 51.10469436645508 C 0.5720018744468689 44.28772354125977 1.88716185092926 37.67437362670898 4.480948448181152 31.4483757019043 C 6.986668586730957 25.43536186218262 10.57370853424072 20.03336143493652 15.14241504669189 15.39248180389404 C 19.71070861816406 10.75377559661865 25.03120231628418 7.109068393707275 30.95602798461914 4.55968189239502 C 34.07659912109375 3.21678352355957 37.29689025878906 2.209269046783447 40.59244155883789 1.542210936546326 C 31.242919921875 5.474820137023926 24.63340187072754 14.84260559082031 24.63340187072754 25.69140243530273 C 24.63340187072754 37.85734558105469 32.95890045166016 48.3349723815918 44.3958740234375 51.10398101806641 C 32.9511833190918 53.86783981323242 24.62080192565918 64.3465576171875 24.62080192565918 76.51890563964844 C 24.62080192565918 87.33282470703125 31.25820159912109 96.73293304443359 40.61741256713867 100.6720886230469 Z" stroke="none"/>
                          <path d="M 36.67399978637695 99.1822509765625 C 29.16044998168945 94.46864318847656 24.12080192565918 86.03038787841797 24.12080192565918 76.51890563964844 C 24.12080192565918 64.73986053466797 31.77716827392578 54.51686859130859 42.53821182250977 51.10346984863281 C 31.78450012207031 47.68567657470703 24.13340187072754 37.46420288085938 24.13340187072754 25.69140243530273 C 24.13340187072754 16.15581893920898 29.14496421813965 7.742820262908936 36.63761901855469 3.037838697433472 C 34.77944183349609 3.585289478302002 32.94984436035156 4.246006488800049 31.15365600585938 5.018975257873535 C 25.28849601745605 7.542681694030762 20.02137565612793 11.15089511871338 15.49872207641602 15.74325561523438 C 10.97512149810791 20.33832168579102 7.423481941223145 25.68701553344727 4.942495346069336 31.64066886901855 C 2.374228477478027 37.80541610717773 1.072001814842224 44.35406875610352 1.072001814842224 51.10469436645508 C 1.072001814842224 57.85468292236328 2.373921871185303 64.40180206298828 4.941628456115723 70.56427001953125 C 7.421695232391357 76.51824188232422 10.9718017578125 81.86597442626953 15.49333477020264 86.45896148681641 C 20.01416206359863 91.05123901367188 25.27924156188965 94.66036224365234 31.14213562011719 97.18600463867188 C 32.95363616943359 97.96588897705078 34.79906845092773 98.63159942626953 36.67399978637695 99.1822509765625 M 49.89817428588867 102.1407775878906 C 43.25811004638672 102.0748519897461 36.81461334228516 100.7168579101563 30.74670791625977 98.1044921875 C 24.76434898376465 95.52740478515625 19.39261436462402 91.84530639648438 14.78070831298828 87.16049194335938 C 10.16894817352295 82.47586822509766 6.548028469085693 77.02146911621094 4.018508434295654 70.94879150390625 C 1.399801850318909 64.66392517089844 0.0720018744468689 57.98740005493164 0.0720018744468689 51.10469436645508 C 0.0720018744468689 44.22137451171875 1.400095224380493 37.54335021972656 4.019402027130127 31.25609588623047 C 6.549868583679199 25.18369483947754 10.17230892181396 19.7283878326416 14.78609561920166 15.04170894622803 C 19.4000415802002 10.35665512084961 24.77389526367188 6.675468444824219 30.75840187072754 4.100401878356934 C 36.91440200805664 1.451241850852966 43.4537467956543 0.09421516954898834 50.19480133056641 0.0670018345117569 C 36.37589645385742 0.1803218424320221 25.13340187072754 11.67448139190674 25.13340187072754 25.69140243530273 C 25.13340187072754 38.53592300415039 34.59040069580078 49.46126937866211 47.13120269775391 51.10469436645508 C 34.58321380615234 52.74273681640625 25.12080192565918 63.6676139831543 25.12080192565918 76.51890563964844 C 25.12080192565918 90.38069152832031 36.23589706420898 101.8737182617188 49.89821624755859 102.1387786865234 L 49.89817428588867 102.1407775878906 Z" stroke="none" fill="#000"/>
                        </g>
                        <g id="Unión_1" data-name="Unión 1" transform="translate(23.981 0.026)" fill="#fff" stroke-linecap="round">
                          <path d="M 25.93351173400879 102.0343017578125 C 22.51252555847168 102.0343017578125 19.19416427612305 101.3671798706055 16.07059097290039 100.0514602661133 C 13.05345821380615 98.78058624267578 10.34372520446777 96.96112823486328 8.016672134399414 94.64364624023438 C 5.689751625061035 92.32630157470703 3.862925052642822 89.62795257568359 2.586938381195068 86.62358093261719 C 1.266058444976807 83.51348876953125 0.5963117480278015 80.20946502685547 0.5963117480278015 76.80330657958984 C 0.5963117480278015 73.39691925048828 1.266058444976807 70.09271240234375 2.586938381195068 66.98249053955078 C 3.862925052642822 63.97799682617188 5.689751625061035 61.27956771850586 8.016672134399414 58.96215438842773 C 10.34372520446777 56.64463424682617 13.05345821380615 54.82514190673828 16.07059097290039 53.55424880981445 C 19.19415092468262 52.23852920532227 22.51251220703125 51.57139587402344 25.93351173400879 51.57139587402344 C 26.76955223083496 51.57139587402344 27.61296463012695 51.61240768432617 28.44031143188477 51.69329071044922 L 28.50147247314453 51.69927597045898 L 28.56227111816406 51.69026184082031 C 41.34817886352539 49.7952880859375 50.99000549316406 38.64219665527344 50.99000549316406 25.74719619750977 C 50.99000549316406 14.86332702636719 44.20539093017578 5.431296348571777 34.62907409667969 1.485965013504028 C 37.99788665771484 2.152183771133423 41.28866958618164 3.159401655197144 44.4774055480957 4.502689361572266 C 50.54605865478516 7.05972957611084 55.99613952636719 10.71932983398438 60.67619323730469 15.37979602813721 C 65.35641479492188 20.04218292236328 69.03086090087891 25.46982192993164 71.59740447998047 31.51187705993652 C 74.25480651855469 37.76862335205078 75.60221862792969 44.41481018066406 75.60221862792969 51.26579666137695 C 75.60221862792969 58.11708831787109 74.25480651855469 64.76296997070313 71.59740447998047 71.01880645751953 C 69.03086090087891 77.06178283691406 65.35641479492188 82.48941040039063 60.67616653442383 87.15093994140625 C 55.99613952636719 91.81226348876953 50.54609680175781 95.47183990478516 44.4774169921875 98.02800750732422 C 39.67845916748047 100.049690246582 34.61552429199219 101.3176345825195 29.42923164367676 101.7966461181641 L 29.41836547851563 101.7976531982422 L 29.40756416320801 101.7991256713867 C 28.26492500305176 101.9551849365234 27.09608459472656 102.0343017578125 25.93351173400879 102.0343017578125 Z" stroke="none"/>
                          <path d="M 25.93351173400879 101.5343017578125 C 27.07353782653809 101.5343017578125 28.2196044921875 101.4567260742188 29.33989906311035 101.3037261962891 L 29.36152458190918 101.3007659912109 L 29.38324546813965 101.2987670898438 C 34.51849746704102 100.8244781494141 39.53159332275391 99.56899261474609 44.2833366394043 97.56720733642578 C 50.29244613647461 95.0361328125 55.68907165527344 91.41239929199219 60.32331085205078 86.79669189453125 C 64.95765686035156 82.18087768554688 68.59597778320313 76.80668640136719 71.13720703125 70.82332611083984 C 73.7681884765625 64.62964630126953 75.10221862792969 58.04954147338867 75.10221862792969 51.26579666137695 C 75.10221862792969 44.48234176635742 73.7681884765625 37.90192794799805 71.13720703125 31.70736885070801 C 68.59599304199219 25.72491645812988 64.9576416015625 20.35068893432617 60.32337951660156 15.73408985137939 C 55.6890869140625 11.11919593811035 50.29239273071289 7.495422840118408 44.28329849243164 4.963476181030273 C 42.43764877319336 4.185979843139648 40.55670928955078 3.52199649810791 38.64653778076172 2.972851753234863 C 46.33562850952148 7.6966552734375 51.49000549316406 16.1705265045166 51.49000549316406 25.74719619750977 C 51.49000549316406 38.88811492919922 41.66473770141602 50.25383758544922 28.63556480407715 52.18486404418945 L 28.51399230957031 52.20287704467773 L 28.39167213439941 52.19091796875 C 27.58041763305664 52.11161041259766 26.75337791442871 52.07139587402344 25.93351173400879 52.07139587402344 C 22.57953834533691 52.07139587402344 19.32648468017578 52.7253303527832 16.26469802856445 54.01503753662109 C 13.30709838867188 55.26084899902344 10.65076541900635 57.04450225830078 8.369498252868652 59.31643676757813 C 6.088498592376709 61.58811569213867 4.297805309295654 64.23310089111328 3.047151803970337 67.17794036865234 C 1.752671718597412 70.22601318359375 1.096311807632446 73.46444702148438 1.096311807632446 76.80330657958984 C 1.096311807632446 80.14192962646484 1.752671718597412 83.38019561767578 3.047151803970337 86.42813110351563 C 4.297805309295654 89.37284851074219 6.088498592376709 92.01775360107422 8.369498252868652 94.28936767578125 C 10.65076541900635 96.56124877929688 13.30709838867188 98.34487915039063 16.26468467712402 99.59067535400391 C 19.32648468017578 100.88037109375 22.57955169677734 101.5343017578125 25.93351173400879 101.5343017578125 M 25.93351173400879 102.5343017578125 C 11.66400527954102 102.5343017578125 0.09631175547838211 91.01430511474609 0.09631175547838211 76.80330657958984 C 0.09631175547838211 62.59139633178711 11.66400527954102 51.07139587402344 25.93351173400879 51.07139587402344 C 26.79573822021484 51.07139587402344 27.64841842651367 51.11349105834961 28.48896598815918 51.19566345214844 C 41.06673812866211 49.33154296875 50.49000549316406 38.48226165771484 50.49000549316406 25.74719619750977 C 50.49000549316406 11.76210308074951 39.06900405883789 0.2195961475372314 25.03080558776855 0.01890281401574612 L 25.03080558776855 0.01619614847004414 C 31.8402042388916 0.06659615039825439 38.44800567626953 1.420196175575256 44.67151260375977 4.041903018951416 C 50.79960632324219 6.623996257781982 56.3031120300293 10.31939601898193 61.02900695800781 15.02550315856934 C 65.75491333007813 19.73339653015137 69.46560668945313 25.21439552307129 72.05760192871094 31.31639671325684 C 74.74140167236328 37.63530349731445 76.10221862792969 44.34750366210938 76.10221862792969 51.26579666137695 C 76.10221862792969 58.18499755859375 74.74140167236328 64.89630126953125 72.05760192871094 71.21430206298828 C 69.46560668945313 77.31719970703125 65.75491333007813 82.79821014404297 61.02900695800781 87.50521087646484 C 56.3031120300293 92.21221160888672 50.79960632324219 95.9075927734375 44.67151260375977 98.48879241943359 C 39.81264495849609 100.5357131958008 34.71755218505859 101.8103408813477 29.47521781921387 102.2945327758789 C 28.31693840026855 102.4527130126953 27.13540458679199 102.5343017578125 25.93351173400879 102.5343017578125 Z" stroke="none" fill="#000"/>
                        </g>
                      </g>
                      <g id="Trazado_31" data-name="Trazado 31" transform="translate(58.329 88.162) rotate(180)" stroke-linecap="round">
                        <path d="M 8.152313232421875 16.02771186828613 L 8.150423049926758 16.02771186828613 C 6.110123157501221 16.02771186828613 4.19191312789917 15.22177124023438 2.749133348464966 13.75835132598877 C 1.304493308067322 12.29303073883057 0.5091632604598999 10.34405136108398 0.5096632242202759 8.270441055297852 C 0.5107032656669617 3.99177098274231 3.941083192825317 0.509971022605896 8.156553268432617 0.508931040763855 C 10.19874286651611 0.508931040763855 12.11695289611816 1.314871072769165 13.55973339080811 2.778290987014771 C 15.00437355041504 4.243610858917236 15.79970359802246 6.192591190338135 15.79920291900635 8.266201019287109 C 15.79816341400146 12.54487133026123 12.36778354644775 16.02667045593262 8.152313232421875 16.02771186828613 Z" stroke="none"/>
                        <path d="M 8.156682968139648 1.008931159973145 C 4.21677303314209 1.00990104675293 1.01063346862793 4.267460823059082 1.009663581848145 8.270561218261719 C 1.009193420410156 10.21191120147705 1.753403663635254 12.03618049621582 3.105193138122559 13.40732097625732 C 4.453252792358398 14.77467155456543 6.245022773742676 15.52771091461182 8.152183532714844 15.52771091461182 C 12.0920934677124 15.52674102783203 15.29823303222656 12.26918125152588 15.29920291900635 8.266080856323242 C 15.29967308044434 6.32473087310791 14.55546283721924 4.500460624694824 13.20367336273193 3.129330635070801 C 11.85561370849609 1.761971473693848 10.0638427734375 1.008931159973145 8.158443450927734 1.008931159973145 L 8.156682968139648 1.008931159973145 M 8.158440589904785 0.008930206298828125 C 12.65591335296631 0.008930206298828125 16.30030250549316 3.705348014831543 16.29920387268066 8.266321182250977 C 16.29809379577637 12.82785129547119 12.65066337585449 16.52660179138184 8.152433395385742 16.52771186828613 C 8.151884078979492 16.52771186828613 8.150975227355957 16.52771186828613 8.150425910949707 16.52771186828613 C 3.652953147888184 16.52771186828613 0.008563995361328125 12.8313045501709 0.009662628173828125 8.270320892333984 C 0.010772705078125 3.70879077911377 3.658203125 0.010040283203125 8.15643310546875 0.008930206298828125 C 8.156982421875 0.008930206298828125 8.157891273498535 0.008930206298828125 8.158440589904785 0.008930206298828125 Z" stroke="none" fill="#707070"/>
                      </g>
                    </g>
                  </g>
                  <g id="Sustracción_44" data-name="Sustracción 44" transform="translate(0 0)" fill="#5c1501" stroke-linecap="round">
                    <path d="M 141.5001983642578 139.5003967285156 L 0.5000053644180298 139.5003967285156 L 0.5000053644180298 0.4999983608722687 L 141.5002288818359 0.4999983608722687 L 141.5001983642578 139.5003967285156 Z M 6.155630588531494 73.56739807128906 C 6.287088394165039 81.23914337158203 5.649733066558838 88.92715454101563 4.26127815246582 96.41676330566406 L 4.244896411895752 96.50514221191406 L 4.260314464569092 96.59368896484375 L 4.299023628234863 96.81597900390625 L 4.328750610351563 96.98668670654297 L 4.457732677459717 97.10240173339844 C 8.85407829284668 101.046012878418 12.9755687713623 105.3833770751953 16.7077693939209 109.9939956665039 C 16.8653507232666 110.1877593994141 17.0222053527832 110.3837966918945 17.19800567626953 110.6035232543945 L 17.3027515411377 110.7343597412109 C 23.05349540710449 117.9516525268555 27.91345977783203 125.8811645507813 31.74695014953613 134.3017578125 L 31.82093238830566 134.4642944335938 L 31.98115158081055 134.5431823730469 C 32.21138763427734 134.6565399169922 32.38144302368164 134.7410888671875 32.51765823364258 134.8122711181641 L 32.71560668945313 134.9156951904297 L 32.92471313476563 134.8372955322266 C 44.68116760253906 130.4301605224609 56.98827743530273 128.0829010009766 69.50416564941406 127.860725402832 L 69.50798797607422 127.8606491088867 L 69.51178741455078 127.8605270385742 L 69.53461456298828 127.8597717285156 C 70.17156982421875 127.8487014770508 70.81658935546875 127.8430862426758 71.45184326171875 127.8430862426758 C 83.49995422363281 127.8430862426758 95.41886138916016 129.82373046875 106.8774795532227 133.72998046875 L 106.9949493408203 133.7700347900391 L 107.1175155639648 133.75048828125 L 107.1346206665039 133.7477569580078 L 107.3841857910156 133.7079772949219 L 107.5001678466797 133.4834289550781 C 113.9761352539063 120.9446182250977 122.5698089599609 109.8923645019531 133.0424957275391 100.6337051391602 L 133.1033020019531 100.5800704956055 L 133.11376953125 100.5710144042969 L 133.1883697509766 100.5062713623047 L 133.1924896240234 100.5027084350586 L 133.196533203125 100.4990310668945 L 133.2318725585938 100.4669952392578 L 133.4436798095703 100.2817611694336 L 133.4945068359375 100.2365264892578 L 133.4983978271484 100.2334136962891 L 133.5078277587891 100.2250900268555 L 133.6086120605469 100.1359786987305 L 133.6748809814453 100.0783462524414 L 133.7282257080078 100.0320892333984 L 133.7594299316406 100.0052337646484 C 135.6667633056641 98.34856414794922 137.6356201171875 96.75021362304688 139.6128387451172 95.25323486328125 L 139.8760223388672 95.05396270751953 L 139.7961730957031 94.73365020751953 C 137.6960601806641 86.30999755859375 136.5540008544922 77.63608551025391 136.4017333984375 68.95283508300781 L 136.4016723632813 68.94970703125 L 136.4015808105469 68.94660186767578 L 136.4007873535156 68.91970825195313 C 136.2585754394531 60.66327285766602 137.0108184814453 52.38079452514648 138.6365814208984 44.30123519897461 L 138.668701171875 44.14165115356445 L 138.6007080078125 43.9937629699707 C 138.5663757324219 43.91909027099609 138.5337524414063 43.84437942504883 138.5011138916016 43.76968765258789 L 138.4467315673828 43.64521789550781 L 138.3368377685547 43.56538009643555 C 135.1735687255859 41.26708984375 132.0955810546875 38.7750358581543 129.1883850097656 36.15847015380859 L 129.1295013427734 36.10575485229492 L 129.1268768310547 36.10312652587891 L 129.1181030273438 36.09508895874023 L 129.0254058837891 36.01049041748047 C 128.848876953125 35.85189056396484 128.6639556884766 35.68541717529297 128.4794921875 35.51583480834961 C 119.7689514160156 27.53734397888184 112.3921127319336 18.26216125488281 106.55322265625 7.94728946685791 L 106.3638305664063 8.426538467407227 L 106.2952575683594 7.661434650421143 L 106.2520217895508 7.65603494644165 C 106.2326431274414 7.653761863708496 106.21923828125 7.651943683624268 106.2070770263672 7.650307655334473 L 106.1872482299805 7.647687435150146 L 106.1689682006836 7.64463472366333 L 105.1458053588867 7.473762035369873 L 105.3802337646484 7.895802974700928 C 95.8006591796875 10.77114868164063 85.86141204833984 12.3178186416626 75.828857421875 12.49338054656982 C 75.19029998779297 12.50452518463135 74.54200744628906 12.51018047332764 73.90200805664063 12.51018047332764 C 61.51238632202148 12.51037979125977 49.27965927124023 10.42001628875732 37.54362487792969 6.297162055969238 L 37.14158630371094 6.155943870544434 L 36.93840408325195 6.530489444732666 C 32.8559684753418 14.05583477020264 27.90613174438477 21.12499809265137 22.22640609741211 27.54159927368164 C 21.96095085144043 27.84112548828125 21.76260566711426 28.06281661987305 21.58489608764648 28.26114463806152 C 15.85245990753174 34.62774276733398 9.406805038452148 40.32040023803711 2.427787065505981 45.18007278442383 L 2.139205455780029 45.38101577758789 L 2.230732679367065 45.72054290771484 C 4.66956901550293 54.76723480224609 5.989787101745605 64.1251220703125 6.154677867889404 73.53427124023438 L 6.154732704162598 73.53737640380859 L 6.154823303222656 73.54050445556641 L 6.155630588531494 73.56739807128906 Z" stroke="none"/>
                    <path d="M 141.0001983642578 139.0003967285156 L 141.0002288818359 0.9999983906745911 L 1.00000536441803 0.9999983906745911 L 1.00000536441803 139.0003967285156 L 141.0001983642578 139.0003967285156 M 5.655740737915039 73.57820129394531 L 5.655059814453125 73.55550384521484 L 5.654860019683838 73.54927062988281 L 5.654750823974609 73.54303741455078 C 5.49058723449707 64.17485046386719 4.176150798797607 54.85781478881836 1.747969031333923 45.85068893432617 L 1.56489622592926 45.17163467407227 L 2.142059803009033 44.76974487304688 C 9.089695930480957 39.93194198608398 15.50647830963135 34.26476287841797 21.21251487731934 27.92748832702637 C 21.38971519470215 27.7297248840332 21.58749580383301 27.50865364074707 21.85200500488281 27.21019744873047 C 27.50662422180176 20.82197952270508 32.43455123901367 13.78410720825195 36.4989128112793 6.292070865631104 L 36.90527725219727 5.542962074279785 L 37.70933151245117 5.825434684753418 C 49.39200592041016 9.929525375366211 61.5689697265625 12.01037979125977 73.90200805664063 12.01018047332764 C 74.53911590576172 12.01018047332764 75.18446350097656 12.00456237792969 75.82011413574219 11.99345302581787 C 85.59912109375 11.82232856750488 95.28881072998047 10.34264469146729 104.6406021118164 7.59391450881958 L 104.2050247192383 6.809725761413574 L 106.251335144043 7.151453018188477 L 106.2617111206055 7.153186321258545 L 106.273681640625 7.154761791229248 C 106.2832412719727 7.156053066253662 106.2937850952148 7.157507419586182 106.3058242797852 7.158907413482666 L 106.3099136352539 7.159379959106445 L 106.3139877319336 7.159889221191406 L 106.3572235107422 7.165289402008057 L 106.4333953857422 8.015118598937988 L 106.9883499145508 7.700980186462402 C 112.8013687133789 17.97012519836426 120.1454238891602 27.20412635803223 128.8179168701172 35.14776229858398 C 129.0004119873047 35.31554412841797 129.1841278076172 35.48092651367188 129.3566589355469 35.63592529296875 L 129.3595733642578 35.63854217529297 L 129.3624572753906 35.64119720458984 L 129.4551544189453 35.72579956054688 L 129.4727478027344 35.74185180664063 L 129.4737854003906 35.74288940429688 L 129.5228729248047 35.78681564331055 C 132.4171752929688 38.39178085327148 135.4815216064453 40.87277984619141 138.6307525634766 43.16086959838867 L 138.8505096435547 43.32056045532227 L 138.9592895507813 43.56950759887695 C 138.9906616210938 43.64128875732422 139.0220031738281 43.71312713623047 139.0550079345703 43.78492736816406 L 139.1909637451172 44.08072662353516 L 139.1267547607422 44.39987182617188 C 137.5082702636719 52.44321441650391 136.7593231201172 60.68944931030273 136.9006652832031 68.90895080566406 L 136.9013519287109 68.93159484863281 L 136.9015502929688 68.93783569335938 L 136.9016571044922 68.94406890869141 C 137.0532836914063 77.58954620361328 138.1903533935547 86.2257080078125 140.2813110351563 94.61268615722656 L 140.4410400390625 95.25332641601563 L 139.9146423339844 95.65187072753906 C 137.9463195800781 97.14212799072266 135.9862365722656 98.73336029052734 134.0857391357422 100.3840713500977 L 134.0557556152344 100.4098892211914 L 134.0030212402344 100.4555969238281 L 133.9366607666016 100.5133285522461 L 133.8390045166016 100.5996704101563 L 133.8201904296875 100.6163101196289 L 133.8169860839844 100.6188659667969 L 133.7795257568359 100.652214050293 L 133.7761993408203 100.6551971435547 L 133.7728271484375 100.6581420898438 L 133.5648345947266 100.8400421142578 L 133.5323486328125 100.8694915771484 L 133.5242767333984 100.8768005371094 L 133.5160369873047 100.8839416503906 L 133.4414978027344 100.948616027832 L 133.4304351806641 100.9582214355469 L 133.3736572265625 101.0083084106445 C 122.9475173950195 110.2258148193359 114.3918762207031 121.2292327880859 107.9444046020508 133.712890625 L 107.7124786376953 134.1619567871094 L 107.2133331298828 134.2415313720703 L 107.1962203979492 134.2442474365234 L 106.9510955810547 134.2833251953125 L 106.7161331176758 134.2032318115234 C 95.3095703125 130.3147277832031 83.44495391845703 128.3430938720703 71.45184326171875 128.3430938720703 C 70.8206787109375 128.3430938720703 70.17986297607422 128.3486480712891 69.54696655273438 128.3596343994141 L 69.52827453613281 128.3602600097656 L 69.52066040039063 128.3605041503906 L 69.51303863525391 128.3606414794922 C 57.05424118041992 128.5818176269531 44.80320358276367 130.9183959960938 33.10022354125977 135.3054656982422 L 32.68198776245117 135.4622497558594 L 32.28611373901367 135.2554168701172 C 32.15433120727539 135.1865692138672 31.98720550537109 135.1034698486328 31.76027870178223 134.9917449951172 L 31.43985939025879 134.833984375 L 31.29187774658203 134.5089263916016 C 27.47535133361816 126.1255950927734 22.63693237304688 118.2312164306641 16.91240501403809 111.0468368530273 L 16.8076057434082 110.915885925293 C 16.6326961517334 110.6972885131836 16.47665977478027 110.5022506713867 16.31915092468262 110.3086013793945 C 12.60358715057373 105.7185287475586 8.500514030456543 101.4005432128906 4.123859882354736 97.47460174560547 L 3.865878105163574 97.24317932128906 L 3.806423425674438 96.90176391601563 L 3.767714500427246 96.67947387695313 L 3.736878156661987 96.50238037109375 L 3.769641637802124 96.32563781738281 C 5.15194034576416 88.86927032470703 5.786516666412354 81.21612548828125 5.655740737915039 73.57820129394531 M 142.0002288818359 140.0003967285156 L 142.0001983642578 140.0003967285156 L 142.0002288818359 140.0003967285156 Z M 142.0002288818359 140.0003967285156 L 5.350008905224968e-06 140.0003967285156 L 5.350008905224968e-06 -1.635742137295892e-06 L 142.0002288818359 -1.635742137295892e-06 L 142.0001983642578 140.0003967285156 Z M 37.37789535522461 6.76890754699707 C 33.27738571166992 14.32758045196533 28.30566024780273 21.42801666259766 22.60080528259277 27.87299919128418 C 22.33440589904785 28.17359924316406 22.13549613952637 28.39590835571289 21.95729637145996 28.59479904174805 C 16.19845962524414 34.99072647094727 9.72391414642334 40.70886993408203 2.713496208190918 45.59039688110352 C 5.163150787353516 54.67718124389648 6.489005565643311 64.07627105712891 6.654605388641357 73.52550506591797 L 6.655496120452881 73.55519866943359 C 6.787823677062988 81.26171112060547 6.147696495056152 88.98410797119141 4.752896308898926 96.50790405273438 L 4.791605472564697 96.73020172119141 C 9.207841873168945 100.6916732788086 13.34787845611572 105.0486145019531 17.09640502929688 109.6794128417969 C 17.25406074523926 109.8732528686523 17.41171455383301 110.0702896118164 17.58842277526855 110.291145324707 L 17.69309616088867 110.4219055175781 C 23.47004127502441 117.6720886230469 28.3515510559082 125.6367416381836 32.20200347900391 134.0946044921875 C 32.44491577148438 134.2142028808594 32.61255264282227 134.2977142333984 32.74920654296875 134.3691101074219 C 44.55922317504883 129.9419097900391 56.92266082763672 127.5839996337891 69.49529266357422 127.3608016967773 L 69.52229309082031 127.3599090576172 C 70.16353607177734 127.348747253418 70.81272888183594 127.3430862426758 71.45184326171875 127.3430862426758 C 83.55500793457031 127.3430862426758 95.52819061279297 129.3327484130859 107.0388031005859 133.2567291259766 L 107.0559158325195 133.2539978027344 C 113.5604248046875 120.6599044799805 122.1923904418945 109.5586547851563 132.7113189697266 100.2591094970703 L 132.7725372314453 100.2051086425781 L 132.7860260009766 100.1933975219727 L 132.8607177734375 100.1286010742188 L 132.8994293212891 100.093505859375 L 133.1145172119141 99.9053955078125 L 133.172119140625 99.85411071777344 L 133.1766204833984 99.85050964355469 L 133.2774047851563 99.76139831542969 L 133.3467102050781 99.70111083984375 L 133.4006958007813 99.65430450439453 L 133.4330902099609 99.62639617919922 C 135.3472290039063 97.96383666992188 137.3248443603516 96.35836029052734 139.3110198974609 94.85459899902344 C 137.2016448974609 86.39376068115234 136.0547332763672 77.68174743652344 135.9018096923828 68.96160125732422 L 135.9009094238281 68.93190765380859 C 135.7578582763672 60.63852691650391 136.5133514404297 52.31839752197266 138.1464080810547 44.20259857177734 C 138.1107482910156 44.12503433227539 138.0768432617188 44.04745101928711 138.0429534912109 43.96989059448242 C 134.8667449951172 41.66219711303711 131.7751617431641 39.15934371948242 128.8538970947266 36.53010559082031 L 128.7855072021484 36.46890640258789 L 128.7810211181641 36.46439743041992 L 128.6883392333984 36.37979888916016 C 128.5139617919922 36.22314453125 128.3280944824219 36.05583572387695 128.1410980224609 35.88390731811523 C 119.3924789428711 27.87054443359375 111.9828796386719 18.55418014526367 106.1180953979492 8.193598747253418 L 106.2332992553711 8.157580375671387 L 106.1900634765625 8.152179718017578 C 106.1714935302734 8.150016784667969 106.1552200317383 8.147834777832031 106.1404800415039 8.145853042602539 L 106.1136016845703 8.142307281494141 L 106.0866088867188 8.137798309326172 L 106.1181106567383 8.194525718688965 C 96.30989837646484 11.1992712020874 86.12226104736328 12.81332588195801 75.83760833740234 12.99330711364746 C 75.19589996337891 13.00450706481934 74.544677734375 13.01018047332764 73.90200805664063 13.01018047332764 C 61.45580673217773 13.01037979125977 49.16731262207031 10.91050720214844 37.37789535522461 6.76890754699707 Z" stroke="none" fill="#000"/>
                  </g>
                </g>
                <g transform="matrix(1, 0, 0, 1, -157, -141)" filter="url(#GOA)">
                  <text id="GOA-2" data-name="GOA" transform="translate(157.5 253.5)" fill="#03aa1f" stroke="#4d4d4d" stroke-linecap="round" stroke-width="1" font-size="50" font-family="EngraversMT, Engravers MT"><tspan x="0" y="47">GOA</tspan></text>
                </g>
              </g>
            </g>
          </g>
        </g>
      </g>
    </g>
  </g>
</svg>
